<svg xmlns="http://www.w3.org/2000/svg" xmlns:xlink="http://www.w3.org/1999/xlink" width="500" zoomAndPan="magnify" viewBox="0 0 375 374.999991" height="500" preserveAspectRatio="xMidYMid meet" version="1.0"><defs><g/></defs><path fill="#1e5043" d="M 150.757812 225.460938 C 150.757812 225.460938 149.4375 221.949219 149.21875 218.328125 C 149.21875 218.328125 148.5625 205.042969 146.914062 203.070312 C 146.914062 203.070312 144.71875 195.273438 146.800781 189.898438 C 146.800781 189.898438 149.105469 182.980469 145.152344 181.113281 C 145.152344 181.113281 145.484375 178.144531 143.726562 176.722656 C 143.726562 176.722656 141.964844 174.640625 143.613281 172.769531 C 143.613281 172.769531 145.375 170.355469 140.980469 168.269531 C 140.980469 168.269531 139.992188 165.746094 141.746094 165.746094 C 141.746094 165.746094 143.503906 164.757812 142.1875 161.570312 C 142.1875 161.570312 140.425781 159.488281 139.550781 156.960938 C 139.550781 156.960938 133.84375 152.128906 131.648438 154.765625 C 131.648438 154.765625 124.183594 157.292969 126.488281 161.679688 C 126.488281 161.679688 121.546875 167.277344 122.097656 172.328125 C 122.097656 172.328125 119.027344 177.160156 119.574219 178.585938 C 119.574219 178.585938 113.425781 177.820312 111.011719 187.917969 C 111.011719 187.917969 106.945312 194.507812 105.960938 197.90625 C 105.960938 197.90625 103.875 200.433594 108.484375 208.113281 C 108.484375 208.113281 112.4375 215.027344 112.761719 215.582031 C 112.761719 215.582031 114.191406 219.96875 117.59375 219.09375 C 120.996094 218.214844 118.25 219.203125 118.25 219.203125 C 118.25 219.203125 115.945312 231.058594 118.027344 234.679688 C 118.027344 234.679688 122.859375 244.894531 123.515625 248.949219 C 123.515625 248.949219 125.054688 254.222656 125.378906 257.84375 C 125.378906 257.84375 124.722656 266.519531 129.109375 275.960938 C 129.109375 275.960938 129.988281 279.914062 129.550781 282.550781 C 129.550781 282.550781 126.917969 288.144531 127.246094 291.554688 C 127.246094 291.554688 127.027344 294.078125 126.371094 295.839844 C 126.371094 295.839844 126.148438 298.695312 126.703125 299.902344 C 126.703125 299.902344 128.453125 301.988281 132.1875 300.34375 C 132.1875 300.34375 133.726562 299.46875 133.285156 294.636719 C 133.285156 294.636719 133.617188 294.304688 134.492188 291.566406 C 134.492188 291.566406 135.371094 289.59375 134.273438 284.761719 C 134.273438 284.761719 133.71875 278.726562 136.03125 275.433594 C 136.03125 275.433594 139.542969 266.871094 139.101562 259.292969 C 139.101562 259.292969 140.089844 251.714844 140.964844 248.425781 C 140.964844 248.425781 146.347656 234.375 147.003906 231.1875 C 147.003906 231.1875 148.320312 231.953125 148.867188 233.273438 C 148.867188 233.273438 149.199219 236.019531 150.839844 233.492188 C 150.859375 233.472656 153.9375 230.726562 150.757812 225.460938 Z M 120.890625 210.085938 C 120.339844 213.710938 118.695312 213.488281 118.695312 213.488281 C 116.9375 215.140625 116.28125 213.160156 116.28125 213.160156 C 115.296875 212.171875 111.011719 201.414062 111.011719 201.414062 C 110.023438 199.550781 110.898438 198.886719 110.898438 198.886719 C 111.121094 197.902344 117.8125 189.007812 117.8125 189.007812 C 119.132812 190.214844 120.449219 202.945312 120.449219 202.945312 C 121.222656 205.699219 120.890625 210.085938 120.890625 210.085938 Z M 132.804688 248.347656 C 132.804688 248.347656 131.324219 243.246094 131.570312 240.691406 C 131.570312 240.691406 131.816406 232.871094 132.226562 232.375 C 132.226562 232.375 133.136719 231.550781 133.953125 232.214844 C 133.953125 232.207031 133.460938 244.886719 132.804688 248.347656 Z M 140.765625 201.632812 C 141.53125 203.828125 141.972656 210.527344 141.972656 210.527344 C 138.785156 207.453125 140.765625 201.632812 140.765625 201.632812 Z M 140.765625 201.632812 " fill-opacity="1" fill-rule="nonzero"/><g fill="#1e5043" fill-opacity="1"><g transform="translate(92.441359, 237.547674)"><g><path d="M 5.09375 -26.03125 C 6.082031 -26.03125 6.859375 -25.78125 7.421875 -25.28125 C 7.984375 -24.78125 8.390625 -24.164062 8.640625 -23.4375 L 14.171875 -8.5 L 19.78125 -23.53125 C 20.039062 -24.164062 20.429688 -24.738281 20.953125 -25.25 C 21.484375 -25.769531 22.226562 -26.03125 23.1875 -26.03125 C 24.144531 -26.03125 24.96875 -25.703125 25.65625 -25.046875 C 26.351562 -24.390625 26.703125 -23.5625 26.703125 -22.5625 C 26.703125 -22.25 26.648438 -21.921875 26.546875 -21.578125 C 26.453125 -21.242188 26.375 -21 26.3125 -20.84375 L 18.4375 -2.640625 C 18.019531 -1.710938 17.472656 -0.953125 16.796875 -0.359375 C 16.128906 0.234375 15.300781 0.53125 14.3125 0.53125 L 13.921875 0.53125 C 12.929688 0.53125 12.097656 0.242188 11.421875 -0.328125 C 10.753906 -0.910156 10.210938 -1.679688 9.796875 -2.640625 L 1.921875 -20.84375 C 1.828125 -21.09375 1.738281 -21.363281 1.65625 -21.65625 C 1.570312 -21.945312 1.53125 -22.265625 1.53125 -22.609375 C 1.53125 -23.472656 1.875 -24.257812 2.5625 -24.96875 C 3.25 -25.675781 4.09375 -26.03125 5.09375 -26.03125 Z M 5.09375 -26.03125 "/></g></g></g><g fill="#ffffff" fill-opacity="1"><g transform="translate(115.679639, 237.547674)"><g><path d="M 7.25 -26.03125 C 8.269531 -26.03125 9.132812 -25.675781 9.84375 -24.96875 C 10.550781 -24.257812 10.90625 -23.394531 10.90625 -22.375 L 10.90625 -3.359375 C 10.90625 -2.335938 10.550781 -1.472656 9.84375 -0.765625 C 9.132812 -0.0664062 8.269531 0.28125 7.25 0.28125 C 6.226562 0.28125 5.363281 -0.0664062 4.65625 -0.765625 C 3.945312 -1.472656 3.59375 -2.335938 3.59375 -3.359375 L 3.59375 -22.375 C 3.59375 -23.394531 3.945312 -24.257812 4.65625 -24.96875 C 5.363281 -25.675781 6.226562 -26.03125 7.25 -26.03125 Z M 7.25 -35.296875 C 8.40625 -35.296875 9.375 -34.988281 10.15625 -34.375 C 10.9375 -33.769531 11.328125 -32.9375 11.328125 -31.875 L 11.328125 -31.78125 C 11.328125 -30.726562 10.9375 -29.890625 10.15625 -29.265625 C 9.375 -28.640625 8.40625 -28.328125 7.25 -28.328125 C 6.09375 -28.328125 5.125 -28.640625 4.34375 -29.265625 C 3.5625 -29.890625 3.171875 -30.726562 3.171875 -31.78125 L 3.171875 -31.875 C 3.171875 -32.9375 3.5625 -33.769531 4.34375 -34.375 C 5.125 -34.988281 6.09375 -35.296875 7.25 -35.296875 Z M 7.25 -35.296875 "/></g></g></g><g fill="#ffffff" fill-opacity="1"><g transform="translate(125.184845, 237.547674)"><g><path d="M 1.921875 -2.78125 C 1.921875 -3.289062 2.007812 -3.742188 2.1875 -4.140625 C 2.363281 -4.546875 2.609375 -4.925781 2.921875 -5.28125 L 9.5 -13.0625 L 3.5 -19.96875 C 2.707031 -20.863281 2.3125 -21.796875 2.3125 -22.765625 C 2.3125 -23.785156 2.632812 -24.597656 3.28125 -25.203125 C 3.9375 -25.816406 4.734375 -26.125 5.671875 -26.125 C 6.398438 -26.125 7.03125 -25.960938 7.5625 -25.640625 C 8.09375 -25.316406 8.597656 -24.851562 9.078125 -24.25 L 13.828125 -17.90625 L 18.671875 -24.25 C 19.117188 -24.789062 19.597656 -25.238281 20.109375 -25.59375 C 20.628906 -25.945312 21.207031 -26.125 21.84375 -26.125 C 22.800781 -26.125 23.609375 -25.828125 24.265625 -25.234375 C 24.921875 -24.640625 25.25 -23.878906 25.25 -22.953125 C 25.25 -22.441406 25.15625 -21.984375 24.96875 -21.578125 C 24.78125 -21.179688 24.539062 -20.804688 24.25 -20.453125 L 18 -13.15625 L 24.4375 -5.765625 C 25.238281 -4.867188 25.640625 -3.941406 25.640625 -2.984375 C 25.640625 -1.953125 25.3125 -1.128906 24.65625 -0.515625 C 24 0.0859375 23.207031 0.390625 22.28125 0.390625 C 21.539062 0.390625 20.898438 0.226562 20.359375 -0.09375 C 19.816406 -0.414062 19.320312 -0.878906 18.875 -1.484375 L 13.6875 -8.3125 L 8.5 -1.484375 C 8.050781 -0.941406 7.570312 -0.492188 7.0625 -0.140625 C 6.550781 0.210938 5.972656 0.390625 5.328125 0.390625 C 4.367188 0.390625 3.5625 0.09375 2.90625 -0.5 C 2.25 -1.09375 1.921875 -1.851562 1.921875 -2.78125 Z M 1.921875 -2.78125 "/></g></g></g><g fill="#1e5043" fill-opacity="1"><g transform="translate(147.753855, 237.547674)"><g><path d="M 2.015625 -12.8125 C 2.015625 -14.644531 2.328125 -16.375 2.953125 -18 C 3.578125 -19.632812 4.445312 -21.0625 5.5625 -22.28125 C 6.6875 -23.5 8.03125 -24.457031 9.59375 -25.15625 C 11.164062 -25.863281 12.878906 -26.21875 14.734375 -26.21875 C 16.910156 -26.21875 18.773438 -25.820312 20.328125 -25.03125 C 21.878906 -24.25 23.160156 -23.25 24.171875 -22.03125 C 25.179688 -20.820312 25.925781 -19.488281 26.40625 -18.03125 C 26.882812 -16.570312 27.125 -15.171875 27.125 -13.828125 C 27.125 -12.773438 26.796875 -11.925781 26.140625 -11.28125 C 25.484375 -10.644531 24.675781 -10.328125 23.71875 -10.328125 L 9.265625 -10.328125 C 9.617188 -8.660156 10.347656 -7.398438 11.453125 -6.546875 C 12.554688 -5.703125 13.925781 -5.28125 15.5625 -5.28125 C 16.582031 -5.28125 17.515625 -5.429688 18.359375 -5.734375 C 19.210938 -6.035156 20.007812 -6.460938 20.75 -7.015625 C 21 -7.203125 21.257812 -7.34375 21.53125 -7.4375 C 21.800781 -7.539062 22.128906 -7.59375 22.515625 -7.59375 C 23.347656 -7.59375 24.03125 -7.316406 24.5625 -6.765625 C 25.09375 -6.222656 25.359375 -5.535156 25.359375 -4.703125 C 25.359375 -4.222656 25.257812 -3.804688 25.0625 -3.453125 C 24.875 -3.097656 24.648438 -2.796875 24.390625 -2.546875 C 23.273438 -1.585938 21.988281 -0.828125 20.53125 -0.265625 C 19.070312 0.296875 17.382812 0.578125 15.46875 0.578125 C 13.539062 0.578125 11.753906 0.257812 10.109375 -0.375 C 8.460938 -1.019531 7.035156 -1.929688 5.828125 -3.109375 C 4.628906 -4.296875 3.691406 -5.707031 3.015625 -7.34375 C 2.347656 -8.976562 2.015625 -10.769531 2.015625 -12.71875 Z M 9.171875 -14.890625 L 20.171875 -14.890625 C 19.941406 -16.515625 19.363281 -17.832031 18.4375 -18.84375 C 17.507812 -19.851562 16.273438 -20.359375 14.734375 -20.359375 C 13.203125 -20.359375 11.960938 -19.859375 11.015625 -18.859375 C 10.078125 -17.867188 9.460938 -16.546875 9.171875 -14.890625 Z M 9.171875 -14.890625 "/></g></g></g><g fill="#1e5043" fill-opacity="1"><g transform="translate(172.190703, 237.547674)"><g><path d="M 6.921875 -26.03125 C 7.941406 -26.03125 8.800781 -25.675781 9.5 -24.96875 C 10.207031 -24.257812 10.5625 -23.394531 10.5625 -22.375 L 10.5625 -22.09375 C 11.394531 -23.175781 12.398438 -24.132812 13.578125 -24.96875 C 14.765625 -25.800781 16.273438 -26.21875 18.109375 -26.21875 C 20.921875 -26.21875 23.078125 -25.375 24.578125 -23.6875 C 26.085938 -22.007812 26.84375 -19.664062 26.84375 -16.65625 L 26.84375 -3.359375 C 26.84375 -2.335938 26.488281 -1.472656 25.78125 -0.765625 C 25.082031 -0.0664062 24.21875 0.28125 23.1875 0.28125 C 22.164062 0.28125 21.300781 -0.0664062 20.59375 -0.765625 C 19.894531 -1.472656 19.546875 -2.335938 19.546875 -3.359375 L 19.546875 -14.359375 C 19.546875 -17.847656 18.070312 -19.59375 15.125 -19.59375 C 13.6875 -19.59375 12.566406 -19.148438 11.765625 -18.265625 C 10.960938 -17.390625 10.5625 -16.085938 10.5625 -14.359375 L 10.5625 -3.359375 C 10.5625 -2.335938 10.207031 -1.472656 9.5 -0.765625 C 8.800781 -0.0664062 7.941406 0.28125 6.921875 0.28125 C 5.890625 0.28125 5.019531 -0.0664062 4.3125 -0.765625 C 3.613281 -1.472656 3.265625 -2.335938 3.265625 -3.359375 L 3.265625 -22.375 C 3.265625 -23.394531 3.613281 -24.257812 4.3125 -24.96875 C 5.019531 -25.675781 5.890625 -26.03125 6.921875 -26.03125 Z M 6.921875 -26.03125 "/></g></g></g><g fill="#1e5043" fill-opacity="1"><g transform="translate(197.107665, 237.547674)"><g><path d="M 7.25 -26.03125 C 8.269531 -26.03125 9.132812 -25.675781 9.84375 -24.96875 C 10.550781 -24.257812 10.90625 -23.394531 10.90625 -22.375 L 10.90625 -3.359375 C 10.90625 -2.335938 10.550781 -1.472656 9.84375 -0.765625 C 9.132812 -0.0664062 8.269531 0.28125 7.25 0.28125 C 6.226562 0.28125 5.363281 -0.0664062 4.65625 -0.765625 C 3.945312 -1.472656 3.59375 -2.335938 3.59375 -3.359375 L 3.59375 -22.375 C 3.59375 -23.394531 3.945312 -24.257812 4.65625 -24.96875 C 5.363281 -25.675781 6.226562 -26.03125 7.25 -26.03125 Z M 7.25 -35.296875 C 8.40625 -35.296875 9.375 -34.988281 10.15625 -34.375 C 10.9375 -33.769531 11.328125 -32.9375 11.328125 -31.875 L 11.328125 -31.78125 C 11.328125 -30.726562 10.9375 -29.890625 10.15625 -29.265625 C 9.375 -28.640625 8.40625 -28.328125 7.25 -28.328125 C 6.09375 -28.328125 5.125 -28.640625 4.34375 -29.265625 C 3.5625 -29.890625 3.171875 -30.726562 3.171875 -31.78125 L 3.171875 -31.875 C 3.171875 -32.9375 3.5625 -33.769531 4.34375 -34.375 C 5.125 -34.988281 6.09375 -35.296875 7.25 -35.296875 Z M 7.25 -35.296875 "/></g></g></g><g fill="#1e5043" fill-opacity="1"><g transform="translate(206.61287, 237.547674)"><g><path d="M 6.921875 -26.03125 C 7.941406 -26.03125 8.800781 -25.675781 9.5 -24.96875 C 10.207031 -24.257812 10.5625 -23.394531 10.5625 -22.375 L 10.5625 -22.09375 C 11.394531 -23.175781 12.398438 -24.132812 13.578125 -24.96875 C 14.765625 -25.800781 16.273438 -26.21875 18.109375 -26.21875 C 20.921875 -26.21875 23.078125 -25.375 24.578125 -23.6875 C 26.085938 -22.007812 26.84375 -19.664062 26.84375 -16.65625 L 26.84375 -3.359375 C 26.84375 -2.335938 26.488281 -1.472656 25.78125 -0.765625 C 25.082031 -0.0664062 24.21875 0.28125 23.1875 0.28125 C 22.164062 0.28125 21.300781 -0.0664062 20.59375 -0.765625 C 19.894531 -1.472656 19.546875 -2.335938 19.546875 -3.359375 L 19.546875 -14.359375 C 19.546875 -17.847656 18.070312 -19.59375 15.125 -19.59375 C 13.6875 -19.59375 12.566406 -19.148438 11.765625 -18.265625 C 10.960938 -17.390625 10.5625 -16.085938 10.5625 -14.359375 L 10.5625 -3.359375 C 10.5625 -2.335938 10.207031 -1.472656 9.5 -0.765625 C 8.800781 -0.0664062 7.941406 0.28125 6.921875 0.28125 C 5.890625 0.28125 5.019531 -0.0664062 4.3125 -0.765625 C 3.613281 -1.472656 3.265625 -2.335938 3.265625 -3.359375 L 3.265625 -22.375 C 3.265625 -23.394531 3.613281 -24.257812 4.3125 -24.96875 C 5.019531 -25.675781 5.890625 -26.03125 6.921875 -26.03125 Z M 6.921875 -26.03125 "/></g></g></g><g fill="#1e5043" fill-opacity="1"><g transform="translate(231.529832, 237.547674)"><g><path d="M 2.109375 -14.21875 C 2.109375 -16.132812 2.425781 -17.835938 3.0625 -19.328125 C 3.707031 -20.816406 4.554688 -22.070312 5.609375 -23.09375 C 6.671875 -24.113281 7.890625 -24.890625 9.265625 -25.421875 C 10.640625 -25.953125 12.066406 -26.21875 13.546875 -26.21875 C 15.523438 -26.21875 17.15625 -25.847656 18.4375 -25.109375 C 19.71875 -24.367188 20.851562 -23.457031 21.84375 -22.375 L 21.84375 -22.421875 C 21.84375 -23.410156 22.191406 -24.257812 22.890625 -24.96875 C 23.597656 -25.675781 24.46875 -26.03125 25.5 -26.03125 C 26.519531 -26.03125 27.378906 -25.675781 28.078125 -24.96875 C 28.785156 -24.257812 29.140625 -23.394531 29.140625 -22.375 L 29.140625 -5.8125 C 29.140625 -3.375 28.835938 -1.289062 28.234375 0.4375 C 27.628906 2.164062 26.722656 3.570312 25.515625 4.65625 C 24.316406 5.75 22.820312 6.539062 21.03125 7.03125 C 19.238281 7.53125 17.15625 7.78125 14.78125 7.78125 C 13.0625 7.78125 11.445312 7.644531 9.9375 7.375 C 8.4375 7.101562 6.914062 6.644531 5.375 6 C 4.738281 5.75 4.234375 5.378906 3.859375 4.890625 C 3.492188 4.410156 3.3125 3.835938 3.3125 3.171875 C 3.3125 2.335938 3.597656 1.628906 4.171875 1.046875 C 4.753906 0.472656 5.460938 0.1875 6.296875 0.1875 C 6.671875 0.1875 7.066406 0.269531 7.484375 0.4375 C 8.546875 0.851562 9.648438 1.210938 10.796875 1.515625 C 11.953125 1.816406 13.21875 1.96875 14.59375 1.96875 C 17.09375 1.96875 18.941406 1.375 20.140625 0.1875 C 21.335938 -0.988281 21.9375 -2.734375 21.9375 -5.046875 L 21.9375 -6.296875 C 20.851562 -4.941406 19.671875 -3.90625 18.390625 -3.1875 C 17.109375 -2.46875 15.492188 -2.109375 13.546875 -2.109375 C 12.035156 -2.109375 10.59375 -2.375 9.21875 -2.90625 C 7.84375 -3.4375 6.625 -4.210938 5.5625 -5.234375 C 4.507812 -6.253906 3.671875 -7.507812 3.046875 -9 C 2.421875 -10.488281 2.109375 -12.191406 2.109375 -14.109375 Z M 15.65625 -8.15625 C 16.550781 -8.15625 17.378906 -8.300781 18.140625 -8.59375 C 18.910156 -8.882812 19.578125 -9.289062 20.140625 -9.8125 C 20.703125 -10.34375 21.140625 -10.972656 21.453125 -11.703125 C 21.773438 -12.441406 21.9375 -13.242188 21.9375 -14.109375 L 21.9375 -14.21875 C 21.9375 -15.082031 21.773438 -15.878906 21.453125 -16.609375 C 21.140625 -17.347656 20.703125 -17.976562 20.140625 -18.5 C 19.578125 -19.03125 18.910156 -19.441406 18.140625 -19.734375 C 17.378906 -20.023438 16.550781 -20.171875 15.65625 -20.171875 C 14.757812 -20.171875 13.929688 -20.023438 13.171875 -19.734375 C 12.421875 -19.441406 11.765625 -19.03125 11.203125 -18.5 C 10.648438 -17.976562 10.210938 -17.347656 9.890625 -16.609375 C 9.566406 -15.878906 9.40625 -15.082031 9.40625 -14.21875 L 9.40625 -14.109375 C 9.40625 -12.285156 9.988281 -10.835938 11.15625 -9.765625 C 12.332031 -8.691406 13.832031 -8.15625 15.65625 -8.15625 Z M 15.65625 -8.15625 "/></g></g></g></svg>