<svg xmlns="http://www.w3.org/2000/svg" xmlns:xlink="http://www.w3.org/1999/xlink" width="1080" zoomAndPan="magnify" viewBox="0 0 810 809.999993" height="1080" preserveAspectRatio="xMidYMid meet" version="1.0"><defs><clipPath id="9201b94dd2"><path d="M 315 219.753906 L 459.652344 219.753906 L 459.652344 543.753906 L 315 543.753906 Z M 315 219.753906 " clip-rule="nonzero"/></clipPath></defs><g clip-path="url(#9201b94dd2)"><path fill="#1e5043" d="M 458.929688 364.207031 C 457.796875 363.585938 456.523438 363.34375 455.355469 362.808594 C 454.484375 362.410156 453.671875 361.894531 452.875 361.351562 C 452.839844 361.296875 452.804688 361.246094 452.769531 361.191406 C 452.632812 360.984375 452.496094 360.777344 452.359375 360.570312 C 452.28125 360.503906 452.207031 360.4375 452.128906 360.371094 C 452.125 360.371094 452.125 360.367188 452.125 360.367188 C 452.023438 360.289062 451.925781 360.214844 451.824219 360.140625 C 451.414062 359.832031 450.984375 359.554688 450.554688 359.269531 C 450.121094 358.984375 449.683594 358.714844 449.234375 358.457031 C 449.042969 358.347656 448.847656 358.242188 448.65625 358.136719 C 448.511719 358.105469 448.367188 358.070312 448.230469 358.023438 C 448.125 357.984375 448.03125 357.996094 447.964844 358.042969 C 447.671875 357.960938 447.375 357.894531 447.074219 357.839844 C 445.609375 357.585938 444.125 357.628906 442.648438 357.769531 C 442.097656 357.820312 441.546875 357.882812 441 357.949219 C 440.933594 357.925781 440.871094 357.902344 440.808594 357.875 C 440.710938 357.839844 440.613281 357.800781 440.515625 357.761719 C 440.441406 357.730469 440.367188 357.703125 440.296875 357.671875 C 440.160156 357.617188 440.023438 357.558594 439.886719 357.5 C 439.386719 357.28125 438.890625 357.042969 438.410156 356.777344 C 436.792969 355.886719 435.453125 354.640625 434.007812 353.488281 C 433.660156 353.210938 433.296875 352.929688 432.910156 352.710938 C 431.992188 352.027344 430.945312 351.507812 429.828125 351.210938 C 428.332031 350.804688 426.816406 350.785156 425.304688 350.898438 C 425.265625 350.886719 425.222656 350.875 425.183594 350.863281 C 425.023438 350.878906 424.863281 350.890625 424.699219 350.902344 C 422.683594 351.042969 420.671875 351.234375 418.660156 351.390625 C 418.1875 351.46875 417.714844 351.539062 417.242188 351.605469 C 416.617188 351.617188 415.992188 351.613281 415.367188 351.605469 C 413.929688 351.671875 412.488281 351.710938 411.046875 351.710938 C 409.921875 351.710938 408.800781 351.65625 407.675781 351.644531 C 405.890625 351.621094 404.09375 351.605469 402.332031 351.265625 C 401.414062 351.085938 400.421875 350.777344 399.636719 350.230469 C 399.546875 350.207031 399.453125 350.1875 399.363281 350.167969 C 398.769531 349.585938 398.199219 348.988281 397.648438 348.367188 C 396.890625 347.515625 396.175781 346.625 395.5 345.710938 C 394.75 344.621094 394.007812 343.527344 393.28125 342.425781 C 392.679688 341.457031 392.117188 340.46875 391.578125 339.46875 C 391.664062 338.996094 391.703125 338.507812 391.6875 338.027344 C 391.652344 337.019531 391.269531 336.132812 390.675781 335.316406 C 390.289062 334.78125 389.851562 334.292969 389.394531 333.820312 C 389.757812 333.878906 390.132812 333.894531 390.507812 333.867188 C 391.09375 333.824219 391.742188 333.6875 392.292969 333.898438 C 392.320312 333.917969 392.347656 333.9375 392.371094 333.960938 C 392.394531 333.980469 392.417969 334 392.441406 334.019531 C 392.59375 334.09375 392.734375 334.191406 392.832031 334.273438 C 393.25 334.613281 393.582031 335.085938 393.808594 335.570312 C 394.101562 336.195312 394.253906 336.878906 394.296875 337.570312 C 394.316406 337.859375 394.320312 338.15625 394.300781 338.445312 C 394.671875 338.054688 394.703125 337.445312 394.667969 336.90625 C 394.640625 336.53125 394.601562 336.152344 394.535156 335.777344 C 394.511719 335.558594 394.460938 335.339844 394.382812 335.125 C 394.34375 334.988281 394.300781 334.851562 394.253906 334.71875 C 394.1875 334.507812 394.109375 334.300781 394.019531 334.101562 C 393.976562 334 393.925781 333.902344 393.875 333.800781 C 393.910156 333.835938 393.945312 333.867188 393.984375 333.898438 C 394.097656 334.074219 394.253906 334.230469 394.472656 334.359375 C 394.910156 334.621094 395.46875 334.644531 395.953125 334.496094 C 396.421875 334.355469 396.765625 334.082031 397.097656 333.773438 C 396.835938 333.957031 396.53125 334.082031 396.21875 334.140625 C 395.421875 334.289062 394.246094 334.035156 394.25 333.027344 C 394.25 332.222656 394.933594 331.394531 395.429688 330.820312 C 395.484375 330.753906 395.542969 330.691406 395.601562 330.625 C 395.671875 330.460938 395.761719 330.296875 395.832031 330.167969 C 395.914062 330.011719 396.003906 329.84375 396.113281 329.699219 C 396.25 329.199219 396.285156 328.6875 396.144531 328.183594 C 396.097656 327.867188 395.976562 327.558594 395.824219 327.28125 C 395.472656 326.640625 394.871094 326.210938 394.195312 325.949219 C 393.492188 325.679688 392.765625 325.679688 392.03125 325.761719 C 391.902344 325.777344 391.648438 325.84375 391.550781 325.753906 C 391.398438 325.613281 391.640625 325.128906 391.691406 324.996094 C 391.945312 324.300781 392.058594 323.601562 391.847656 322.875 C 391.667969 322.253906 391.273438 321.691406 390.765625 321.277344 C 390.464844 321.03125 390.136719 320.832031 389.796875 320.660156 C 389.875 320.660156 389.953125 320.660156 390.03125 320.660156 C 391.058594 320.625 392.078125 320.292969 393.109375 320.394531 C 394.011719 320.484375 394.5 321.054688 394.871094 321.816406 C 395.300781 322.703125 395.535156 323.679688 395.738281 324.636719 C 395.929688 325.535156 395.992188 326.667969 396.621094 327.394531 C 397.378906 328.265625 398.71875 328.027344 399.472656 327.289062 C 399.839844 326.929688 400.046875 326.457031 400.164062 325.964844 C 400.257812 325.558594 400.324219 325.125 400.285156 324.707031 C 400.289062 324.648438 400.289062 324.589844 400.292969 324.53125 C 400.292969 324.488281 400.28125 324.457031 400.257812 324.429688 C 400.195312 324.703125 400.109375 324.96875 399.988281 325.222656 C 399.761719 325.695312 399.425781 326.316406 398.964844 326.589844 C 398.71875 326.734375 398.40625 326.734375 398.207031 326.519531 C 398.023438 326.320312 398.011719 326.019531 398.03125 325.765625 C 398.039062 325.691406 398.042969 325.617188 398.046875 325.542969 C 398.035156 325.457031 398.027344 325.382812 398.019531 325.328125 C 397.777344 323.785156 397.488281 322.242188 396.792969 320.824219 C 396.457031 320.136719 396.019531 319.445312 395.453125 318.917969 C 394.792969 318.308594 393.96875 318.015625 393.066406 318.023438 C 392.742188 318.023438 392.417969 318.0625 392.097656 318.105469 C 392.15625 317.957031 392.203125 317.800781 392.242188 317.640625 C 392.257812 317.570312 392.273438 317.496094 392.289062 317.425781 C 392.625 317.355469 392.957031 317.273438 393.277344 317.183594 C 394.117188 316.945312 394.984375 316.558594 395.574219 315.910156 C 396.082031 315.359375 396.4375 314.652344 396.59375 313.929688 C 396.691406 313.488281 396.695312 313.050781 396.625 312.625 C 396.617188 312.25 396.539062 311.875 396.375 311.519531 C 396.167969 311.058594 395.851562 310.65625 395.460938 310.34375 C 395.296875 310.191406 395.117188 310.058594 394.925781 309.96875 C 395.007812 310.0625 395.09375 310.15625 395.171875 310.253906 C 395.5 310.640625 395.785156 311.046875 395.929688 311.535156 C 396.1875 312.414062 395.960938 313.378906 395.414062 314.097656 C 394.875 314.8125 394.070312 315.210938 393.203125 315.390625 C 392.71875 315.488281 392.128906 315.546875 391.617188 315.410156 C 391.386719 315.378906 391.160156 315.332031 390.945312 315.265625 C 390.640625 315.175781 390.371094 315.050781 390.128906 314.890625 C 389.980469 313.980469 389.769531 313.085938 389.433594 312.21875 C 389.363281 312.039062 389.285156 311.855469 389.203125 311.671875 C 389.414062 311.410156 389.644531 311.164062 389.875 310.933594 C 390.414062 310.398438 391.003906 309.921875 391.617188 309.476562 C 392.230469 309.035156 392.882812 308.632812 393.457031 308.136719 C 394.429688 307.300781 394.996094 306.128906 394.925781 304.847656 C 394.894531 304.269531 394.742188 303.691406 394.464844 303.179688 C 394.445312 302.855469 394.257812 302.507812 394.144531 302.238281 C 393.949219 301.777344 393.679688 301.371094 393.390625 300.960938 C 393.109375 300.558594 392.886719 300.144531 392.6875 299.699219 C 392.636719 299.585938 392.589844 299.464844 392.535156 299.347656 C 393.269531 299.199219 393.996094 298.964844 394.65625 298.660156 C 395.605469 298.226562 396.441406 297.554688 397.066406 296.730469 C 397.707031 295.886719 398.050781 294.898438 398.167969 293.855469 C 398.167969 293.851562 398.167969 293.851562 398.167969 293.847656 C 398.273438 293.304688 398.285156 292.742188 398.191406 292.195312 C 398.121094 291.800781 397.976562 291.335938 397.746094 290.949219 C 397.875 291.378906 397.96875 291.816406 398.003906 292.265625 C 398.136719 293.929688 397.292969 295.539062 395.960938 296.503906 C 395.402344 296.914062 394.75 297.273438 394.121094 297.554688 C 393.675781 297.753906 393.023438 298.019531 392.542969 297.796875 C 392.347656 297.832031 392.148438 297.863281 391.953125 297.882812 C 391.921875 297.625 391.898438 297.367188 391.894531 297.109375 C 391.898438 297.097656 391.902344 297.089844 391.90625 297.078125 C 392.339844 296.777344 392.816406 296.523438 393.308594 296.28125 C 394.300781 295.792969 395.351562 295.207031 395.808594 294.160156 C 396.242188 293.148438 396.007812 291.820312 395.503906 290.871094 C 395.230469 290.351562 394.804688 289.917969 394.25 289.691406 C 393.933594 289.5625 393.417969 289.488281 393.023438 289.605469 C 392.839844 289.597656 392.628906 289.613281 392.457031 289.679688 C 392.039062 289.722656 391.582031 289.921875 391.347656 290.257812 C 391.238281 290.316406 391.136719 290.386719 391.050781 290.472656 C 391.507812 290.265625 392.007812 290.113281 392.480469 290.230469 C 392.992188 290.355469 393.484375 290.851562 393.222656 291.402344 C 392.941406 291.992188 392.191406 292.085938 391.617188 292.066406 C 391.316406 292.058594 391.003906 292.015625 390.703125 291.9375 C 390.679688 291.933594 390.660156 291.933594 390.640625 291.929688 C 389.941406 291.882812 389.253906 291.769531 388.574219 291.601562 C 388.535156 291.59375 388.496094 291.582031 388.453125 291.574219 C 388.394531 291.496094 388.335938 291.417969 388.277344 291.339844 C 388.269531 291.324219 388.246094 291.339844 388.25 291.359375 C 388.265625 291.417969 388.28125 291.472656 388.300781 291.53125 C 388.160156 291.496094 388.023438 291.453125 387.886719 291.410156 C 388.015625 291.375 388.140625 291.339844 388.261719 291.296875 C 389.070312 291.027344 389.789062 290.535156 390.332031 289.878906 C 390.886719 289.210938 391.199219 288.378906 391.320312 287.476562 C 391.320312 287.476562 391.320312 287.472656 391.320312 287.472656 C 391.417969 287.007812 391.445312 286.515625 391.378906 286.027344 C 391.316406 285.578125 391.160156 285.019531 390.882812 284.605469 C 390.90625 284.757812 390.929688 284.914062 390.949219 285.070312 C 391.003906 285.589844 390.972656 286.113281 390.882812 286.625 C 390.808594 287.035156 390.6875 287.457031 390.492188 287.832031 C 390.316406 288.257812 390.066406 288.640625 389.761719 288.980469 C 389.738281 289.003906 389.714844 289.027344 389.695312 289.050781 C 389.527344 289.195312 389.347656 289.328125 389.160156 289.445312 C 388.308594 289.980469 387.265625 290.269531 386.195312 290.261719 C 386.128906 290.179688 386.0625 290.097656 386.003906 290.011719 C 385.996094 289.910156 385.996094 289.808594 385.996094 289.703125 C 386.0625 289.625 386.121094 289.539062 386.167969 289.453125 C 386.496094 289.277344 386.847656 289.136719 387.207031 289.007812 C 388.050781 288.699219 388.945312 288.3125 389.351562 287.445312 C 389.675781 286.757812 389.625 285.824219 389.375 285.015625 C 389.957031 284.738281 390.539062 284.472656 391.125 284.269531 C 391.617188 283.949219 392.160156 283.816406 392.609375 284.324219 C 392.933594 284.6875 392.980469 285.222656 392.898438 285.683594 C 392.851562 285.941406 392.789062 286.238281 392.699219 286.523438 C 393.066406 286.207031 393.339844 285.667969 393.429688 285.25 C 393.546875 284.726562 393.460938 284.144531 393.121094 283.714844 C 393.066406 283.0625 392.070312 282.675781 391.496094 282.625 C 390.488281 282.535156 389.53125 283.054688 388.566406 283.25 C 388.425781 283.277344 388.28125 283.296875 388.136719 283.316406 C 387.878906 283.175781 387.488281 283.066406 387.183594 283.113281 C 387.027344 283.082031 386.855469 283.066406 386.710938 283.101562 C 386.628906 283.097656 386.542969 283.101562 386.460938 283.113281 C 386.300781 282.945312 386.15625 282.753906 386.03125 282.550781 C 386.085938 282.453125 386.128906 282.351562 386.160156 282.242188 C 386.175781 282.164062 386.1875 282.082031 386.191406 282 C 386.183594 281.953125 386.175781 281.910156 386.167969 281.863281 C 386.15625 281.777344 386.136719 281.691406 386.121094 281.605469 C 387.347656 280.894531 388.28125 279.699219 388.730469 278.34375 C 389.179688 276.992188 389.324219 275.386719 389.046875 273.992188 C 389.035156 273.933594 389 273.90625 388.960938 273.898438 C 388.910156 274.230469 388.847656 274.5625 388.800781 274.894531 C 388.691406 275.652344 388.53125 276.410156 388.128906 277.074219 C 387.9375 277.390625 387.703125 277.695312 387.425781 277.953125 C 387.304688 277.445312 386.585938 277.042969 386.148438 276.933594 C 385.933594 276.878906 385.714844 276.859375 385.5 276.863281 C 385.238281 276.472656 384.9375 276.109375 384.613281 275.78125 C 384.609375 275.722656 384.609375 275.664062 384.605469 275.605469 C 384.671875 274.984375 384.703125 274.359375 384.699219 273.738281 C 384.695312 273.367188 384.675781 273 384.652344 272.632812 C 384.660156 272.511719 384.671875 272.394531 384.679688 272.277344 C 384.675781 271.949219 384.65625 271.621094 384.636719 271.292969 C 384.902344 271.132812 385.148438 270.945312 385.359375 270.730469 C 385.820312 270.273438 386.085938 269.707031 386.203125 269.097656 C 386.203125 269.097656 386.203125 269.09375 386.203125 269.09375 C 386.292969 268.78125 386.324219 268.445312 386.28125 268.117188 C 386.230469 267.746094 386.070312 267.265625 385.742188 266.992188 C 385.628906 266.894531 385.460938 266.976562 385.519531 267.109375 C 385.574219 267.230469 385.628906 267.339844 385.679688 267.453125 C 385.714844 267.613281 385.773438 267.78125 385.796875 267.941406 C 385.839844 268.230469 385.808594 268.515625 385.742188 268.796875 C 385.617188 269.308594 385.324219 269.761719 384.917969 270.136719 C 384.898438 270.152344 384.878906 270.167969 384.863281 270.183594 C 384.769531 270.253906 384.667969 270.316406 384.566406 270.378906 C 384.558594 270.292969 384.550781 270.210938 384.542969 270.128906 C 384.542969 270.109375 384.546875 270.09375 384.546875 270.078125 C 384.554688 269.785156 384.554688 269.496094 384.550781 269.207031 C 384.574219 269.171875 384.597656 269.144531 384.621094 269.109375 C 384.949219 268.542969 384.847656 267.738281 384.546875 267.140625 C 384.503906 267.054688 384.457031 266.972656 384.398438 266.894531 C 384.300781 266.058594 384.164062 265.222656 383.980469 264.40625 C 383.566406 262.5625 382.890625 260.8125 382.074219 259.113281 C 381.757812 258.449219 381.429688 257.789062 381.132812 257.117188 C 381.402344 256.296875 381.644531 255.464844 381.832031 254.621094 C 382.335938 252.308594 382.253906 249.984375 381.117188 247.867188 C 380.011719 245.796875 378.371094 244.066406 377.0625 242.128906 C 375.890625 240.394531 375.078125 238.496094 374.4375 236.511719 C 373.238281 232.78125 372.558594 228.757812 370.417969 225.402344 C 368.273438 222.039062 364.488281 219.753906 360.429688 219.996094 C 359.34375 220.058594 358.28125 220.328125 357.296875 220.761719 C 357.113281 220.515625 356.792969 220.355469 356.527344 220.242188 C 356.332031 220.160156 356.132812 220.101562 355.925781 220.054688 C 355.316406 219.878906 354.652344 219.863281 354.007812 219.96875 C 353.3125 220.042969 352.636719 220.242188 352.027344 220.617188 C 351.710938 220.8125 351.417969 221.042969 351.15625 221.300781 C 351.050781 220.53125 349.921875 220.351562 349.3125 220.269531 C 348.195312 220.125 346.9375 220.21875 345.917969 220.714844 C 345.691406 220.824219 345.484375 220.957031 345.285156 221.105469 C 345.019531 220.921875 344.609375 220.875 344.3125 220.832031 C 343.914062 220.78125 343.515625 220.785156 343.117188 220.839844 C 342.269531 220.960938 341.460938 221.300781 340.785156 221.828125 C 340.746094 221.855469 340.710938 221.886719 340.671875 221.917969 C 340.136719 221.597656 339.5 221.792969 338.953125 222.03125 C 338.367188 222.285156 337.765625 222.585938 337.277344 223.007812 C 336.910156 222.953125 336.558594 223.105469 336.226562 223.25 C 336.1875 223.265625 336.148438 223.285156 336.109375 223.304688 C 336.03125 223.335938 335.953125 223.367188 335.878906 223.398438 C 335.691406 223.476562 335.511719 223.578125 335.339844 223.691406 C 335.226562 223.761719 335.113281 223.832031 335.007812 223.910156 C 334.695312 224.144531 334.417969 224.414062 334.179688 224.722656 C 334.019531 224.925781 333.808594 225.179688 333.714844 225.445312 C 333.292969 225.425781 332.867188 225.460938 332.457031 225.554688 C 331.070312 225.878906 329.882812 226.78125 328.9375 227.8125 C 326.992188 229.9375 325.707031 232.675781 325.082031 235.46875 C 325.078125 235.488281 325.074219 235.503906 325.070312 235.523438 C 325.015625 235.730469 324.964844 235.933594 324.917969 236.140625 C 324.660156 237.292969 324.527344 238.476562 324.519531 239.65625 C 324.511719 240.894531 324.699219 242.097656 324.839844 243.324219 C 324.894531 243.78125 324.925781 244.246094 324.90625 244.707031 C 324.800781 245.449219 324.625 246.148438 324.300781 246.84375 C 323.917969 247.667969 323.410156 248.429688 322.878906 249.164062 C 321.800781 250.667969 320.648438 252.109375 320.019531 253.871094 C 318.832031 257.203125 319.496094 261.015625 321.933594 263.613281 C 322.324219 264.027344 322.742188 264.414062 323.148438 264.808594 C 323.152344 264.976562 323.148438 265.144531 323.136719 265.3125 C 323.042969 265.78125 322.898438 266.238281 322.738281 266.695312 C 322.667969 266.785156 322.59375 266.871094 322.523438 266.957031 C 322.351562 267.160156 322.125 267.378906 321.980469 267.621094 C 321.589844 268.070312 321.230469 268.554688 320.957031 269.082031 C 320.246094 270.457031 320.25 272.105469 321.082031 273.433594 C 321.296875 273.78125 321.5625 274.074219 321.855469 274.339844 C 321.917969 274.421875 321.976562 274.5 322.03125 274.578125 C 322.394531 275.085938 322.753906 275.589844 322.941406 276.191406 C 323.117188 276.761719 323.160156 277.417969 322.832031 277.945312 C 322.5 278.472656 321.871094 278.769531 321.371094 279.113281 C 319.402344 280.464844 317.59375 282.164062 316.703125 284.425781 C 316.246094 285.585938 316.066406 286.84375 316.25 288.074219 C 316.15625 288.222656 316.070312 288.367188 315.988281 288.515625 C 315.859375 288.75 315.761719 289.019531 315.707031 289.304688 C 315.558594 289.808594 315.527344 290.335938 315.691406 290.859375 C 315.707031 290.90625 315.71875 290.949219 315.738281 290.992188 C 315.703125 291.480469 315.824219 292.011719 315.890625 292.480469 C 315.964844 292.988281 316.089844 293.492188 316.378906 293.925781 C 316.921875 294.746094 317.820312 295.226562 318.734375 295.515625 C 319.15625 295.644531 319.582031 295.746094 320.011719 295.847656 C 320.0625 295.988281 320.105469 296.132812 320.136719 296.285156 C 319.886719 296.464844 319.636719 296.648438 319.410156 296.839844 C 319.003906 297.183594 318.617188 297.582031 318.363281 298.046875 C 318.085938 298.558594 317.855469 299.324219 318.148438 299.875 C 318.183594 299.941406 318.230469 300.007812 318.285156 300.0625 C 318.09375 300.292969 317.914062 300.527344 317.765625 300.773438 C 317.378906 301.410156 317.152344 302.261719 317.3125 303.007812 C 316.8125 303.527344 316.421875 304.15625 316.097656 304.796875 C 315.671875 305.636719 315.367188 306.535156 315.207031 307.464844 C 314.910156 309.199219 315.074219 311.125 316.511719 312.324219 C 317.191406 312.890625 317.996094 313.191406 318.800781 313.519531 C 318.863281 313.570312 318.921875 313.617188 318.988281 313.664062 C 319.941406 314.351562 321.132812 314.703125 322.304688 314.707031 C 322.972656 314.707031 323.832031 314.433594 324.445312 314.792969 C 324.878906 315.054688 325.023438 315.515625 325.136719 315.976562 C 325.136719 316.058594 325.136719 316.144531 325.136719 316.230469 C 324.878906 316.316406 324.644531 316.609375 324.5 316.796875 C 324.277344 317.085938 324.113281 317.417969 323.964844 317.75 C 323.949219 317.753906 323.9375 317.757812 323.917969 317.757812 C 323.8125 317.773438 323.699219 317.753906 323.609375 317.695312 C 323.523438 317.640625 323.457031 317.558594 323.40625 317.46875 C 323.375 317.375 323.339844 317.28125 323.28125 317.203125 C 323.265625 317.179688 323.234375 317.183594 323.226562 317.207031 C 323.128906 317.457031 323.253906 317.808594 323.414062 318.007812 C 323.421875 318.011719 323.429688 318.019531 323.433594 318.027344 C 323.414062 318.066406 323.410156 318.117188 323.441406 318.167969 C 323.515625 318.277344 323.605469 318.367188 323.699219 318.4375 C 323.582031 318.808594 323.503906 319.214844 323.582031 319.5625 C 323.589844 319.660156 323.605469 319.761719 323.636719 319.855469 C 323.6875 320.027344 323.78125 320.1875 323.898438 320.339844 C 324.089844 320.753906 324.4375 321.070312 324.875 321.261719 C 325.113281 321.363281 325.351562 321.445312 325.585938 321.535156 C 325.769531 321.632812 325.964844 321.710938 326.160156 321.800781 C 326.328125 321.898438 326.484375 322.015625 326.628906 322.171875 C 326.875 322.441406 327.0625 322.765625 327.179688 323.113281 C 327.238281 323.285156 327.265625 323.46875 327.304688 323.644531 C 327.296875 323.753906 327.285156 323.863281 327.265625 323.96875 C 327.164062 324.5625 326.980469 325.019531 326.511719 325.40625 C 326.082031 325.761719 325.574219 326.027344 325.042969 326.195312 C 324.519531 326.359375 323.84375 326.492188 323.300781 326.324219 C 322.75 326.152344 322.457031 325.664062 322.136719 325.222656 C 322.113281 325.1875 322.046875 325.207031 322.0625 325.253906 C 322.324219 325.992188 322.941406 326.574219 323.738281 326.628906 C 324.648438 326.691406 325.605469 326.410156 326.367188 325.914062 C 326.710938 325.691406 327.058594 325.425781 327.273438 325.070312 C 327.507812 324.6875 327.609375 324.199219 327.664062 323.757812 C 327.769531 322.933594 327.53125 322.179688 326.886719 321.703125 C 326.898438 321.699219 326.90625 321.695312 326.917969 321.691406 C 327.378906 321.863281 327.78125 322.113281 328.011719 322.5625 C 328.289062 323.113281 328.128906 323.90625 327.96875 324.472656 C 327.785156 325.121094 327.457031 325.6875 326.925781 326.109375 C 325.90625 326.921875 324.378906 327.484375 323.097656 327.027344 C 321.75 326.542969 321.242188 325.011719 320.773438 323.734375 C 320.75 323.621094 320.726562 323.507812 320.714844 323.394531 C 320.679688 323.085938 320.6875 322.773438 320.664062 322.464844 C 320.660156 322.433594 320.625 322.421875 320.605469 322.433594 C 320.601562 322.40625 320.5625 322.410156 320.554688 322.433594 C 320.46875 322.734375 320.476562 323.074219 320.441406 323.382812 C 320.410156 323.648438 320.335938 323.953125 320.378906 324.222656 C 320.34375 324.441406 320.324219 324.667969 320.308594 324.867188 C 320.292969 325.015625 320.289062 325.167969 320.289062 325.320312 C 320.285156 325.382812 320.289062 325.445312 320.289062 325.507812 C 320.289062 325.515625 320.289062 325.519531 320.289062 325.527344 C 320.292969 325.679688 320.304688 325.828125 320.324219 325.980469 C 320.351562 326.152344 320.398438 326.324219 320.464844 326.484375 C 320.382812 326.394531 320.304688 326.296875 320.222656 326.203125 C 320.207031 326.175781 320.191406 326.148438 320.175781 326.121094 C 320.050781 325.902344 319.953125 325.671875 319.878906 325.433594 C 319.839844 325.089844 319.820312 324.746094 319.785156 324.390625 C 319.785156 324.375 319.773438 324.359375 319.761719 324.351562 C 319.769531 324.066406 319.789062 323.78125 319.824219 323.5 C 319.832031 323.441406 319.730469 323.425781 319.71875 323.488281 C 319.476562 324.984375 319.558594 326.574219 320.511719 327.820312 C 320.898438 328.320312 321.394531 328.71875 321.984375 328.953125 C 322.054688 328.980469 322.128906 329.007812 322.199219 329.03125 C 322.246094 329.050781 322.292969 329.066406 322.339844 329.085938 C 322.660156 329.195312 322.996094 329.269531 323.332031 329.324219 C 323.597656 329.382812 323.886719 329.449219 324.15625 329.398438 C 324.21875 329.398438 324.28125 329.390625 324.34375 329.382812 C 324.566406 329.390625 324.792969 329.386719 325.019531 329.359375 C 325.578125 329.296875 326.167969 329.121094 326.710938 328.90625 C 326.785156 328.882812 326.855469 328.851562 326.929688 328.824219 C 326.769531 329.175781 326.640625 329.539062 326.554688 329.917969 C 326.421875 329.980469 326.289062 330.042969 326.160156 330.113281 C 325.296875 330.308594 324.402344 330.339844 323.527344 330.199219 C 323.050781 330.121094 322.582031 329.996094 322.136719 329.816406 C 321.675781 329.636719 321.277344 329.371094 320.847656 329.136719 C 320.449219 328.8125 320.105469 328.445312 319.75 328.046875 C 319.707031 327.996094 319.644531 328.058594 319.664062 328.109375 C 319.777344 328.371094 319.941406 328.609375 320.136719 328.828125 C 320.304688 329.128906 320.597656 329.40625 320.859375 329.636719 C 321.054688 329.839844 321.292969 330.011719 321.523438 330.164062 C 321.820312 330.371094 322.128906 330.554688 322.460938 330.703125 C 322.742188 330.828125 323.027344 330.933594 323.324219 331.015625 C 323.5625 331.105469 323.816406 331.164062 324.027344 331.195312 C 324.5625 331.273438 325.109375 331.253906 325.648438 331.175781 C 325.90625 331.136719 326.160156 331.082031 326.414062 331.015625 C 326.40625 331.507812 326.46875 332.007812 326.625 332.46875 C 326.84375 333.105469 327.226562 333.589844 327.769531 333.984375 C 327.832031 334.027344 327.917969 333.921875 327.855469 333.871094 C 327.003906 333.164062 326.703125 332.003906 326.761719 330.914062 C 327.484375 330.695312 328.1875 330.378906 328.835938 330.03125 C 329.230469 329.816406 329.597656 329.570312 329.933594 329.296875 C 329.535156 330.265625 329.273438 331.292969 329.164062 332.332031 C 329.042969 333.511719 329.183594 334.796875 329.921875 335.773438 C 330.3125 336.292969 330.828125 336.667969 331.390625 336.976562 C 331.496094 337.042969 331.601562 337.101562 331.714844 337.144531 C 332.152344 337.367188 332.613281 337.558594 333.054688 337.757812 C 333.417969 337.925781 333.777344 338.097656 334.128906 338.285156 C 334.433594 338.453125 334.855469 338.628906 335.085938 338.898438 C 335.339844 339.191406 335.183594 339.621094 334.949219 339.878906 C 334.695312 340.15625 334.359375 340.261719 333.992188 340.296875 C 333.867188 340.308594 333.824219 340.488281 333.960938 340.523438 C 334.898438 340.761719 336.046875 339.664062 335.582031 338.753906 C 335.546875 338.460938 335.421875 338.195312 335.25 337.949219 C 335.207031 337.894531 335.164062 337.84375 335.125 337.792969 C 334.695312 337.480469 334.273438 337.160156 333.851562 336.84375 C 333.34375 336.460938 332.804688 336.109375 332.367188 335.644531 C 331.964844 335.222656 331.636719 334.738281 331.410156 334.199219 C 331 333.230469 331.015625 332.289062 331.433594 331.332031 C 331.589844 330.976562 331.839844 330.527344 332.179688 330.226562 C 332.191406 330.300781 332.207031 330.371094 332.21875 330.441406 C 332.234375 330.503906 332.253906 330.59375 332.277344 330.699219 C 332.277344 330.671875 332.277344 330.648438 332.277344 330.621094 C 332.277344 330.453125 332.28125 330.28125 332.285156 330.109375 C 332.734375 329.375 333.238281 328.679688 333.78125 328.011719 C 334.136719 327.578125 334.511719 327.148438 334.910156 326.738281 C 334.992188 327.445312 335.292969 328.097656 336.003906 328.394531 C 336.761719 328.714844 337.570312 328.421875 338.011719 327.746094 C 338.09375 327.617188 337.898438 327.460938 337.796875 327.578125 C 337.277344 328.175781 336.308594 328.246094 335.785156 327.609375 C 335.472656 327.230469 335.421875 326.722656 335.441406 326.21875 C 335.691406 325.988281 335.953125 325.769531 336.21875 325.5625 C 336.507812 325.527344 336.808594 325.488281 337.058594 325.601562 C 337.375 325.738281 337.542969 326.203125 337.644531 326.519531 C 337.699219 326.691406 337.972656 326.609375 337.9375 326.429688 C 337.824219 325.882812 337.722656 325.378906 337.253906 325.066406 C 337.199219 325.03125 337.140625 325 337.082031 324.976562 C 337.328125 324.828125 337.578125 324.695312 337.835938 324.578125 C 337.890625 324.554688 337.949219 324.535156 338.003906 324.523438 C 338.125 325.089844 338.359375 325.621094 338.785156 325.996094 C 338.824219 326.035156 338.871094 326.066406 338.917969 326.101562 C 338.820312 326.640625 338.589844 327.144531 338.191406 327.605469 C 337.730469 328.140625 337.164062 328.570312 336.644531 329.042969 C 336.171875 329.472656 335.785156 329.894531 335.589844 330.425781 C 335.351562 331.070312 335.320312 331.710938 335.550781 332.328125 C 335.582031 332.417969 335.570312 332.386719 335.636719 332.515625 C 335.675781 332.585938 335.714844 332.65625 335.757812 332.726562 C 335.839844 332.863281 335.933594 333 336.027344 333.128906 C 336.136719 333.273438 336.371094 333.558594 336.539062 333.765625 C 337.066406 334.421875 337.625 335.128906 337.800781 335.972656 C 337.964844 336.746094 337.78125 337.5625 337.25 338.132812 C 337.605469 337.976562 337.9375 337.683594 338.148438 337.277344 C 338.277344 337.035156 338.347656 336.792969 338.378906 336.5625 C 338.398438 336.511719 338.414062 336.460938 338.429688 336.410156 C 338.425781 336.535156 338.421875 336.660156 338.417969 336.78125 C 338.417969 337.023438 338.429688 337.269531 338.449219 337.515625 C 338.457031 337.671875 338.46875 337.828125 338.488281 337.984375 C 338.503906 338.234375 338.539062 338.480469 338.597656 338.707031 C 338.675781 339.117188 338.777344 339.515625 338.890625 339.898438 C 338.949219 340.101562 339.019531 340.3125 339.105469 340.503906 C 338.726562 338.46875 339.261719 336.328125 340.226562 334.515625 C 340.664062 333.699219 341.195312 332.945312 341.78125 332.234375 C 341.910156 332.457031 342.039062 332.675781 342.1875 332.890625 C 342.902344 333.960938 343.804688 334.921875 344.824219 335.707031 C 345.429688 336.171875 346.078125 336.5625 346.75 336.921875 C 349.0625 340.375 351.480469 343.761719 353.273438 347.507812 C 354.257812 349.5625 355.164062 351.75 355.554688 353.992188 C 355.570312 354.078125 355.582031 354.167969 355.597656 354.257812 C 355.644531 354.554688 355.6875 354.855469 355.722656 355.152344 C 355.738281 355.300781 355.753906 355.449219 355.765625 355.597656 C 355.765625 355.601562 355.765625 355.605469 355.769531 355.609375 C 355.78125 355.753906 355.792969 355.894531 355.800781 356.035156 C 355.835938 356.609375 355.847656 357.183594 355.824219 357.757812 C 355.777344 358.898438 355.65625 360.003906 355.15625 361.050781 C 354.753906 361.890625 354.113281 362.617188 353.457031 363.285156 C 352.707031 364.046875 351.953125 364.808594 351.199219 365.566406 C 349.5 367.28125 347.707031 368.910156 346.042969 370.65625 C 344.601562 372.160156 343.539062 373.894531 342.519531 375.757812 C 342.375 376.015625 342.234375 376.273438 342.09375 376.53125 C 342.132812 376.5625 342.195312 376.601562 342.210938 376.613281 C 342.277344 376.65625 342.34375 376.699219 342.414062 376.742188 C 342.710938 376.925781 343.027344 377.078125 343.347656 377.21875 C 343.359375 377.222656 343.367188 377.226562 343.375 377.230469 C 343.414062 377.246094 343.457031 377.261719 343.496094 377.277344 C 343.578125 377.308594 343.660156 377.335938 343.738281 377.367188 C 343.902344 377.421875 344.070312 377.476562 344.234375 377.523438 C 344.683594 377.65625 345.136719 377.761719 345.59375 377.851562 C 344.316406 379.769531 343.242188 381.847656 342.546875 384.070312 C 342.480469 384.285156 342.417969 384.5 342.359375 384.71875 C 342.339844 384.785156 342.320312 384.855469 342.304688 384.925781 C 342.265625 385.074219 342.226562 385.226562 342.1875 385.378906 C 342.171875 385.457031 342.152344 385.535156 342.132812 385.613281 C 342.101562 385.761719 342.070312 385.910156 342.039062 386.058594 C 342.023438 386.132812 342.007812 386.210938 341.992188 386.285156 C 341.960938 386.449219 341.929688 386.617188 341.902344 386.785156 C 341.890625 386.839844 341.882812 386.894531 341.871094 386.953125 C 341.832031 387.179688 341.796875 387.40625 341.765625 387.636719 C 341.765625 387.644531 341.765625 387.65625 341.761719 387.664062 C 341.746094 387.78125 341.730469 387.898438 341.71875 388.015625 C 341.71875 388.011719 341.71875 388.007812 341.71875 388.003906 C 341.714844 388.03125 341.710938 388.054688 341.710938 388.082031 C 341.699219 388.160156 341.691406 388.238281 341.679688 388.316406 C 341.671875 388.378906 341.667969 388.4375 341.660156 388.5 C 341.65625 388.535156 341.652344 388.570312 341.648438 388.605469 C 341.644531 388.652344 341.640625 388.699219 341.632812 388.746094 C 341.625 388.835938 341.617188 388.921875 341.609375 389.011719 C 341.601562 389.078125 341.597656 389.144531 341.589844 389.214844 C 341.574219 389.382812 341.5625 389.554688 341.550781 389.722656 C 341.546875 389.761719 341.542969 389.800781 341.542969 389.835938 C 341.535156 389.925781 341.527344 390.019531 341.523438 390.109375 C 341.519531 390.15625 341.519531 390.199219 341.515625 390.246094 C 341.503906 390.421875 341.496094 390.601562 341.488281 390.777344 C 341.484375 390.847656 341.480469 390.917969 341.476562 390.988281 C 341.472656 391.140625 341.464844 391.296875 341.460938 391.453125 C 341.457031 391.527344 341.457031 391.605469 341.453125 391.679688 C 341.449219 391.828125 341.445312 391.980469 341.441406 392.128906 C 341.441406 392.207031 341.4375 392.28125 341.4375 392.355469 C 341.433594 392.515625 341.433594 392.671875 341.433594 392.828125 C 341.429688 392.894531 341.429688 392.957031 341.429688 393.023438 C 341.429688 393.242188 341.425781 393.460938 341.429688 393.679688 C 341.429688 396.101562 341.617188 398.546875 342.109375 400.921875 C 342.324219 402.167969 342.621094 403.394531 342.996094 404.601562 C 343.820312 407.277344 344.980469 409.855469 346.476562 412.195312 C 347.308594 413.496094 348.234375 414.753906 349.253906 415.921875 C 336.558594 417.371094 327.929688 420.207031 327.929688 423.472656 C 327.929688 426.558594 335.632812 429.265625 347.191406 430.773438 C 349.5 433.5625 351.402344 436.734375 353.015625 440.160156 C 355.015625 444.402344 356.675781 448.90625 358.097656 453.460938 C 359.566406 458.164062 360.742188 462.992188 361.601562 467.902344 C 362.492188 473.007812 362.988281 478.179688 363.261719 483.378906 C 363.527344 488.460938 363.703125 493.570312 363.625 498.664062 C 363.554688 503.492188 363.222656 508.332031 362.324219 513.050781 C 361.453125 517.625 360.046875 522.050781 357.90625 526.011719 C 355.894531 529.734375 353.148438 533.226562 349.726562 535.136719 C 348.925781 535.585938 348.046875 535.917969 347.167969 536.066406 C 346.304688 536.210938 345.539062 536.15625 344.75 535.914062 C 343.3125 535.472656 341.984375 534.445312 341.394531 532.796875 C 340.878906 531.367188 341.117188 529.304688 342.375 528.5 C 342.890625 528.167969 343.570312 528.074219 344.101562 528.335938 C 344.324219 528.445312 344.535156 528.636719 344.671875 528.855469 C 344.679688 528.867188 344.789062 529.085938 344.847656 529.226562 C 344.847656 529.238281 344.878906 529.339844 344.882812 529.355469 C 344.910156 529.460938 344.933594 529.570312 344.953125 529.679688 C 344.957031 529.714844 344.96875 529.832031 344.972656 529.863281 C 344.972656 529.972656 344.976562 530.082031 344.96875 530.195312 C 344.96875 530.21875 344.96875 530.238281 344.96875 530.253906 C 344.949219 530.359375 344.925781 530.460938 344.902344 530.5625 C 344.84375 530.816406 344.730469 530.996094 344.484375 531.234375 C 344.042969 531.65625 344.113281 532.546875 344.484375 532.988281 C 344.917969 533.5 345.527344 533.410156 345.96875 532.988281 C 347.476562 531.535156 347.433594 528.722656 346.246094 527.039062 C 344.949219 525.210938 342.457031 525.214844 340.890625 526.53125 C 339.140625 528.007812 338.554688 530.835938 339.195312 533.207031 C 339.8125 535.476562 341.347656 537.125 343.179688 538.015625 C 347.273438 540.007812 351.558594 537.453125 354.660156 534.296875 C 357.839844 531.0625 360.238281 526.804688 361.886719 522.269531 C 365.460938 512.441406 365.804688 501.605469 365.496094 491.0625 C 365.496094 491 365.492188 490.933594 365.492188 490.867188 C 365.5 490.875 365.503906 490.878906 365.511719 490.882812 C 366.503906 491.527344 367.648438 491.753906 368.75 491.941406 C 368.828125 491.957031 368.90625 491.96875 368.984375 491.976562 C 369.035156 498.160156 369.003906 504.339844 368.875 510.519531 C 368.761719 515.8125 368.570312 521.105469 368.277344 526.390625 C 368.269531 526.441406 368.265625 526.492188 368.257812 526.542969 C 368.101562 527.828125 367.910156 529.113281 367.835938 530.40625 C 367.769531 531.589844 367.726562 532.777344 367.632812 533.957031 C 367.621094 534.078125 367.609375 534.203125 367.597656 534.324219 C 367.589844 534.371094 367.578125 534.492188 367.574219 534.527344 C 367.535156 534.796875 367.492188 535.0625 367.4375 535.328125 C 367.394531 535.550781 367.339844 535.773438 367.28125 535.992188 C 367.269531 536.039062 367.253906 536.082031 367.238281 536.128906 C 366.957031 536.882812 366.617188 537.632812 366.210938 538.316406 C 366.070312 538.515625 365.925781 538.710938 365.769531 538.894531 C 365.640625 539.050781 365.507812 539.199219 365.367188 539.34375 C 365.351562 539.355469 365.191406 539.507812 365.207031 539.5 C 365.148438 539.546875 365.09375 539.59375 365.035156 539.636719 C 364.894531 539.746094 364.746094 539.851562 364.59375 539.941406 C 364.574219 539.953125 364.414062 540.035156 364.40625 540.042969 C 364.308594 540.085938 364.210938 540.125 364.109375 540.160156 C 363.988281 540.203125 363.863281 540.238281 363.734375 540.265625 C 363.761719 540.257812 363.578125 540.285156 363.542969 540.289062 C 363.445312 540.292969 363.351562 540.285156 363.253906 540.285156 C 363.242188 540.285156 363.230469 540.285156 363.214844 540.28125 C 363.144531 540.265625 363.074219 540.25 363.007812 540.226562 C 362.964844 540.210938 362.835938 540.140625 362.835938 540.140625 C 362.785156 540.109375 362.738281 540.078125 362.6875 540.042969 C 362.675781 540.035156 362.664062 540.027344 362.65625 540.019531 C 362.644531 540.007812 362.636719 539.992188 362.621094 539.96875 C 362.601562 539.941406 362.480469 539.777344 362.488281 539.800781 C 362.4375 539.710938 362.394531 539.621094 362.355469 539.527344 C 362.390625 539.601562 362.300781 539.378906 362.285156 539.328125 C 362.257812 539.21875 362.230469 539.109375 362.207031 538.996094 C 362.1875 538.878906 362.171875 538.765625 362.152344 538.648438 C 362.207031 538.980469 362.152344 538.605469 362.148438 538.546875 C 362.117188 538.0625 362.117188 537.566406 362.140625 537.070312 C 362.316406 537.171875 362.515625 537.226562 362.726562 537.230469 C 363.152344 537.234375 363.578125 537.050781 363.84375 536.648438 C 364.101562 536.253906 364.136719 535.707031 364.164062 535.226562 C 364.207031 534.460938 364.042969 533.644531 363.644531 533.03125 C 363.640625 533.027344 363.640625 533.027344 363.636719 533.023438 C 363.621094 532.992188 363.605469 532.964844 363.585938 532.933594 C 363.15625 532.21875 362.445312 531.753906 361.691406 531.875 C 361 531.984375 360.59375 532.433594 360.34375 533.027344 C 359.683594 534.097656 359.496094 535.632812 359.476562 536.914062 C 359.460938 538.019531 359.648438 539.222656 360.070312 540.261719 C 360.355469 541.261719 360.882812 542.113281 361.800781 542.613281 C 363.898438 543.75 366.242188 542.382812 367.703125 540.535156 C 368.238281 539.859375 368.679688 539.113281 369.042969 538.3125 C 369.75 535.75 369.976562 533.058594 370.109375 530.363281 C 370.164062 529.28125 370.230469 528.207031 370.304688 527.128906 C 370.5625 522.386719 370.742188 517.640625 370.851562 512.890625 C 371.011719 506.011719 371.054688 499.125 370.949219 492.242188 C 370.949219 492.121094 370.945312 492 370.941406 491.878906 C 371.359375 491.765625 371.769531 491.589844 372.183594 491.332031 C 372.320312 491.246094 372.457031 491.15625 372.589844 491.0625 C 372.304688 501.578125 372.671875 512.378906 376.253906 522.171875 C 377.910156 526.699219 380.316406 530.953125 383.5 534.183594 C 386.605469 537.332031 390.894531 539.875 394.988281 537.875 C 396.816406 536.980469 398.351562 535.328125 398.960938 533.058594 C 399.601562 530.683594 399.007812 527.855469 397.253906 526.386719 C 395.6875 525.070312 393.195312 525.074219 391.902344 526.90625 C 390.714844 528.589844 390.679688 531.40625 392.191406 532.851562 C 392.632812 533.273438 393.238281 533.363281 393.675781 532.847656 C 394.046875 532.40625 394.113281 531.515625 393.671875 531.09375 C 393.421875 530.855469 393.3125 530.679688 393.25 530.425781 C 393.226562 530.324219 393.203125 530.222656 393.1875 530.117188 C 393.1875 530.097656 393.183594 530.078125 393.183594 530.054688 C 393.179688 529.945312 393.179688 529.835938 393.183594 529.726562 C 393.183594 529.691406 393.195312 529.578125 393.199219 529.539062 C 393.21875 529.429688 393.242188 529.324219 393.269531 529.214844 C 393.273438 529.199219 393.304688 529.097656 393.304688 529.085938 C 393.363281 528.945312 393.472656 528.726562 393.480469 528.714844 C 393.613281 528.5 393.824219 528.304688 394.050781 528.195312 C 394.578125 527.933594 395.257812 528.023438 395.777344 528.355469 C 397.03125 529.15625 397.273438 531.21875 396.765625 532.648438 C 396.175781 534.300781 394.851562 535.332031 393.414062 535.773438 C 392.625 536.019531 391.859375 536.074219 390.996094 535.933594 C 390.113281 535.789062 389.238281 535.457031 388.433594 535.011719 C 385.011719 533.109375 382.257812 529.621094 380.238281 525.902344 C 378.089844 521.949219 376.679688 517.523438 375.800781 512.953125 C 374.894531 508.234375 374.554688 503.398438 374.472656 498.566406 C 374.390625 493.472656 374.554688 488.367188 374.8125 483.28125 C 375.078125 478.082031 375.566406 472.910156 376.449219 467.804688 C 377.019531 464.507812 377.734375 461.242188 378.582031 458.03125 C 378.613281 457.949219 378.636719 457.859375 378.652344 457.769531 C 379.050781 456.285156 379.472656 454.8125 379.925781 453.351562 C 381.34375 448.796875 382.996094 444.289062 384.988281 440.039062 C 386.601562 436.597656 388.503906 433.417969 390.820312 430.613281 C 401.722656 429.078125 408.910156 426.453125 408.910156 423.476562 C 408.910156 423.457031 408.910156 423.441406 408.910156 423.425781 C 409.375 423.515625 409.839844 423.601562 410.304688 423.691406 C 411.027344 423.855469 411.75 424.023438 412.472656 424.191406 C 412.546875 424.210938 412.625 424.226562 412.703125 424.246094 C 414.429688 424.429688 416.152344 424.628906 417.875 424.824219 C 420.546875 425.121094 423.199219 425.320312 425.871094 425.441406 C 427.488281 425.515625 429.125 425.59375 430.746094 425.804688 C 431.148438 425.804688 431.550781 425.796875 431.953125 425.789062 C 431.960938 425.808594 431.960938 425.824219 431.949219 425.84375 C 431.941406 425.855469 431.929688 425.867188 431.921875 425.878906 C 431.550781 426.128906 431.1875 426.390625 430.832031 426.660156 C 429.257812 427.867188 427.820312 429.261719 426.53125 430.789062 C 423.929688 433.867188 421.910156 437.472656 420.464844 441.28125 C 420.324219 441.648438 420.191406 442.023438 420.058594 442.394531 C 420.039062 442.453125 420.019531 442.507812 420 442.566406 C 419.988281 442.601562 419.976562 442.632812 419.964844 442.664062 C 419.964844 442.664062 419.96875 442.664062 419.96875 442.664062 C 418.996094 445.484375 418.292969 448.394531 417.769531 451.34375 C 417.714844 451.53125 417.660156 451.71875 417.625 451.914062 C 417.535156 452.363281 417.460938 452.820312 417.359375 453.269531 C 417.167969 454.121094 417.046875 454.992188 416.929688 455.859375 C 416.683594 457.632812 416.488281 459.410156 416.320312 461.195312 C 415.980469 464.777344 415.71875 468.367188 415.324219 471.945312 C 414.949219 475.363281 414.421875 478.761719 413.613281 482.101562 C 412.828125 485.34375 411.832031 488.535156 410.644531 491.648438 C 409.976562 493.390625 409.25 495.109375 408.460938 496.796875 C 408.417969 496.882812 408.378906 496.96875 408.335938 497.054688 C 408.316406 497.011719 408.296875 496.96875 408.273438 496.925781 C 408.257812 496.890625 408.242188 496.855469 408.222656 496.816406 C 408.160156 496.671875 408.09375 496.527344 408.035156 496.378906 C 407.980469 496.242188 407.925781 496.105469 407.875 495.96875 C 407.726562 495.578125 407.582031 495.183594 407.382812 494.8125 C 407.375 494.804688 407.371094 494.796875 407.363281 494.785156 C 407.359375 494.78125 407.359375 494.777344 407.355469 494.773438 C 407.316406 494.65625 407.1875 494.605469 407.0625 494.632812 C 407.007812 494.632812 406.953125 494.648438 406.902344 494.671875 C 406.898438 494.675781 406.890625 494.679688 406.886719 494.683594 C 406.886719 494.683594 406.886719 494.679688 406.886719 494.679688 C 406.882812 494.683594 406.882812 494.683594 406.878906 494.6875 C 406.855469 494.699219 406.832031 494.714844 406.808594 494.734375 C 406.808594 494.738281 406.808594 494.738281 406.808594 494.738281 C 406.785156 494.757812 406.765625 494.78125 406.75 494.804688 C 406.746094 494.8125 406.742188 494.820312 406.738281 494.828125 C 406.726562 494.847656 406.71875 494.867188 406.710938 494.890625 C 406.707031 494.898438 406.703125 494.90625 406.703125 494.914062 C 406.695312 494.945312 406.691406 494.980469 406.691406 495.011719 C 406.691406 495.035156 406.691406 495.058594 406.691406 495.082031 C 406.605469 495.25 406.523438 495.421875 406.441406 495.597656 C 406.285156 495.945312 406.144531 496.304688 406.003906 496.664062 C 405.9375 496.84375 405.867188 497.019531 405.796875 497.199219 C 405.636719 497.617188 405.472656 498.035156 405.3125 498.457031 C 405.152344 498.878906 404.992188 499.304688 404.835938 499.730469 C 404.679688 500.160156 404.519531 500.589844 404.359375 501.019531 C 403.886719 502.3125 403.410156 503.625 402.929688 504.957031 C 402.324219 506.644531 401.589844 508.410156 401.601562 510.234375 C 401.601562 510.347656 401.609375 510.460938 401.617188 510.570312 C 401.605469 510.625 401.597656 510.683594 401.585938 510.738281 C 401.585938 510.738281 401.585938 510.734375 401.585938 510.734375 C 401.578125 510.769531 401.574219 510.804688 401.570312 510.839844 C 401.566406 510.871094 401.558594 510.90625 401.550781 510.941406 C 401.550781 510.960938 401.550781 510.980469 401.546875 511 C 401.539062 511.066406 401.535156 511.132812 401.527344 511.199219 C 401.523438 511.25 401.519531 511.300781 401.519531 511.351562 C 401.515625 511.425781 401.515625 511.5 401.515625 511.578125 C 401.515625 511.617188 401.515625 511.660156 401.515625 511.703125 C 401.519531 511.820312 401.527344 511.941406 401.542969 512.0625 C 401.558594 512.214844 401.578125 512.363281 401.605469 512.515625 C 401.628906 512.664062 401.65625 512.8125 401.6875 512.960938 C 401.78125 513.191406 401.863281 513.425781 401.9375 513.660156 C 402.015625 513.894531 402.082031 514.132812 402.148438 514.367188 C 402.285156 514.871094 402.410156 515.382812 402.527344 515.890625 C 402.5625 516.0625 402.601562 516.234375 402.640625 516.402344 C 402.695312 516.621094 402.75 516.835938 402.804688 517.054688 C 402.914062 517.492188 403.019531 517.929688 403.113281 518.375 C 403.160156 518.605469 403.207031 518.835938 403.25 519.066406 C 403.292969 519.296875 403.332031 519.53125 403.371094 519.761719 C 403.417969 519.992188 403.46875 520.222656 403.519531 520.453125 C 403.617188 520.910156 403.714844 521.371094 403.804688 521.832031 C 403.898438 522.292969 403.984375 522.757812 404.066406 523.21875 C 404.183594 523.914062 404.289062 524.613281 404.367188 525.3125 C 404.433594 525.878906 404.480469 526.445312 404.515625 527.011719 C 404.53125 527.296875 404.542969 527.578125 404.550781 527.863281 C 404.566406 528.429688 404.566406 528.996094 404.554688 529.566406 C 404.542969 530.132812 404.519531 530.699219 404.480469 531.265625 C 404.460938 531.546875 404.441406 531.832031 404.414062 532.113281 C 404.398438 532.300781 404.382812 532.488281 404.363281 532.675781 C 404.328125 533.046875 404.285156 533.421875 404.234375 533.792969 C 404.210938 533.980469 404.183594 534.164062 404.15625 534.351562 C 404.316406 534.359375 404.472656 534.367188 404.632812 534.371094 C 404.785156 534.378906 404.9375 534.335938 405.078125 534.253906 C 405.167969 534.199219 405.253906 534.128906 405.324219 534.042969 C 405.359375 534 405.390625 533.953125 405.417969 533.90625 C 405.472656 533.808594 405.507812 533.699219 405.523438 533.582031 C 405.570312 533.179688 405.621094 532.777344 405.675781 532.378906 C 405.691406 532.269531 405.707031 532.15625 405.722656 532.046875 C 405.769531 531.726562 405.816406 531.410156 405.867188 531.089844 C 405.882812 531.003906 405.894531 530.917969 405.910156 530.832031 C 405.972656 530.4375 406.042969 530.046875 406.117188 529.652344 C 406.128906 529.578125 406.144531 529.503906 406.160156 529.425781 C 406.222656 529.101562 406.285156 528.777344 406.351562 528.453125 C 406.375 528.355469 406.394531 528.257812 406.414062 528.15625 C 406.582031 527.375 406.765625 526.597656 406.960938 525.832031 C 406.980469 525.746094 407.003906 525.660156 407.027344 525.574219 C 407.113281 525.25 407.199219 524.925781 407.289062 524.605469 C 407.308594 524.539062 407.324219 524.472656 407.34375 524.40625 C 407.453125 524.023438 407.5625 523.640625 407.679688 523.261719 C 407.847656 522.703125 408.023438 522.15625 408.207031 521.609375 C 408.210938 521.589844 408.21875 521.570312 408.226562 521.550781 C 408.351562 521.179688 408.480469 520.808594 408.613281 520.441406 C 408.644531 520.347656 408.679688 520.253906 408.714844 520.164062 C 408.851562 519.785156 408.988281 519.410156 409.132812 519.039062 C 409.136719 519.042969 409.136719 519.042969 409.140625 519.046875 C 409.398438 519.269531 409.648438 519.5 409.898438 519.738281 C 410.011719 519.847656 410.125 519.957031 410.238281 520.070312 C 410.355469 520.191406 410.472656 520.3125 410.589844 520.4375 C 410.820312 520.6875 411.042969 520.945312 411.261719 521.207031 C 411.34375 521.304688 411.425781 521.402344 411.503906 521.503906 C 411.5625 521.574219 411.617188 521.648438 411.675781 521.722656 C 411.746094 521.816406 411.820312 521.914062 411.890625 522.011719 C 412.230469 522.476562 412.546875 522.960938 412.832031 523.46875 C 413.042969 523.839844 413.234375 524.226562 413.410156 524.625 C 413.5625 524.96875 413.695312 525.320312 413.824219 525.675781 C 414.375 527.222656 414.742188 528.867188 415.230469 530.484375 C 415.292969 530.6875 415.355469 530.886719 415.421875 531.082031 C 415.683594 531.875 415.988281 532.65625 416.363281 533.390625 C 416.640625 533.945312 416.957031 534.472656 417.320312 534.96875 C 417.675781 535.070312 418.027344 535.171875 418.378906 535.277344 C 418.640625 535.355469 418.898438 535.433594 419.160156 535.511719 C 419.410156 535.585938 419.660156 535.652344 419.910156 535.71875 C 419.976562 535.734375 420.042969 535.75 420.109375 535.765625 C 420.183594 535.785156 420.253906 535.800781 420.324219 535.816406 C 420.425781 535.839844 420.527344 535.863281 420.625 535.886719 C 420.660156 535.894531 420.691406 535.902344 420.726562 535.910156 C 420.753906 535.914062 420.777344 535.921875 420.804688 535.925781 C 420.804688 535.925781 420.800781 535.925781 420.800781 535.925781 C 420.84375 535.933594 420.886719 535.941406 420.933594 535.953125 C 421.074219 535.980469 421.214844 536.007812 421.355469 536.035156 C 421.464844 536.054688 421.574219 536.074219 421.6875 536.09375 C 421.773438 536.109375 421.863281 536.125 421.953125 536.140625 C 422.085938 536.160156 422.21875 536.183594 422.351562 536.203125 C 422.4375 536.214844 422.523438 536.226562 422.609375 536.238281 C 422.761719 536.261719 422.914062 536.28125 423.066406 536.300781 C 423.140625 536.308594 423.214844 536.320312 423.289062 536.328125 C 423.328125 536.332031 423.371094 536.339844 423.414062 536.34375 C 423.414062 536.34375 423.414062 536.34375 423.414062 536.339844 C 423.78125 536.382812 424.152344 536.421875 424.523438 536.453125 C 424.671875 536.464844 424.820312 536.472656 424.96875 536.484375 C 425 536.488281 425.03125 536.488281 425.0625 536.492188 C 425.183594 536.5 425.304688 536.503906 425.421875 536.511719 C 425.515625 536.515625 425.609375 536.519531 425.703125 536.523438 C 425.890625 536.53125 426.074219 536.535156 426.257812 536.539062 C 426.371094 536.542969 426.484375 536.542969 426.601562 536.542969 C 426.707031 536.546875 426.816406 536.542969 426.921875 536.542969 C 427.035156 536.542969 427.144531 536.542969 427.257812 536.539062 C 427.320312 536.539062 427.382812 536.539062 427.445312 536.539062 C 427.460938 536.535156 427.472656 536.535156 427.484375 536.535156 C 427.507812 536.535156 427.535156 536.535156 427.558594 536.53125 C 427.75 536.527344 427.945312 536.519531 428.140625 536.507812 C 428.214844 536.503906 428.289062 536.5 428.367188 536.496094 C 428.507812 536.484375 428.648438 536.476562 428.789062 536.464844 C 428.878906 536.457031 428.964844 536.453125 429.054688 536.445312 C 429.097656 536.441406 429.144531 536.4375 429.1875 536.433594 C 429.1875 536.429688 429.1875 536.429688 429.1875 536.429688 C 429.199219 536.429688 429.207031 536.429688 429.21875 536.425781 C 429.21875 536.429688 429.21875 536.429688 429.21875 536.429688 C 429.304688 536.421875 429.386719 536.410156 429.472656 536.402344 C 429.507812 536.398438 429.542969 536.394531 429.578125 536.390625 C 429.628906 536.386719 429.675781 536.382812 429.726562 536.375 C 429.941406 536.351562 430.160156 536.324219 430.375 536.292969 C 430.375 536.292969 430.378906 536.292969 430.378906 536.292969 C 430.464844 536.28125 430.550781 536.265625 430.636719 536.253906 C 430.703125 536.246094 430.765625 536.234375 430.832031 536.222656 C 430.871094 536.214844 430.910156 536.210938 430.949219 536.203125 C 431.019531 536.191406 431.09375 536.179688 431.164062 536.167969 C 431.273438 536.152344 431.378906 536.132812 431.484375 536.113281 C 431.589844 536.09375 431.695312 536.074219 431.800781 536.054688 C 431.925781 536.03125 432.050781 536.007812 432.175781 535.980469 C 432.261719 535.964844 432.347656 535.949219 432.429688 535.929688 C 432.640625 535.886719 432.851562 535.839844 433.0625 535.792969 C 433.15625 535.75 433.246094 535.707031 433.332031 535.660156 C 433.335938 535.660156 433.335938 535.660156 433.335938 535.65625 C 433.425781 535.625 433.515625 535.585938 433.605469 535.550781 C 433.644531 535.53125 433.6875 535.511719 433.730469 535.492188 C 433.777344 535.472656 433.820312 535.449219 433.867188 535.429688 C 433.917969 535.402344 433.96875 535.378906 434.019531 535.351562 C 434.054688 535.332031 434.089844 535.316406 434.125 535.296875 C 434.175781 535.265625 434.226562 535.238281 434.277344 535.207031 C 434.304688 535.191406 434.328125 535.175781 434.355469 535.160156 C 434.375 535.144531 434.398438 535.132812 434.421875 535.121094 C 434.507812 535.066406 434.589844 535.007812 434.675781 534.945312 C 434.921875 534.765625 435.160156 534.558594 435.375 534.316406 C 435.378906 534.316406 435.378906 534.316406 435.378906 534.316406 C 435.449219 534.238281 435.515625 534.15625 435.582031 534.074219 C 435.597656 534.050781 435.617188 534.027344 435.636719 534.003906 C 435.683594 533.9375 435.734375 533.871094 435.777344 533.800781 C 435.792969 533.78125 435.804688 533.761719 435.820312 533.742188 C 435.832031 533.71875 435.847656 533.699219 435.863281 533.675781 C 435.882812 533.644531 435.898438 533.613281 435.917969 533.578125 C 435.933594 533.550781 435.953125 533.523438 435.96875 533.496094 C 435.96875 533.492188 435.972656 533.484375 435.976562 533.476562 C 435.984375 533.460938 435.996094 533.445312 436.003906 533.429688 C 436.023438 533.390625 436.046875 533.351562 436.066406 533.308594 C 436.082031 533.273438 436.097656 533.238281 436.113281 533.203125 C 436.128906 533.175781 436.140625 533.148438 436.152344 533.121094 C 436.191406 533.03125 436.226562 532.945312 436.257812 532.855469 C 436.261719 532.847656 436.265625 532.835938 436.265625 532.828125 C 436.296875 532.738281 436.324219 532.648438 436.351562 532.554688 C 436.359375 532.527344 436.367188 532.496094 436.375 532.464844 C 436.394531 532.390625 436.410156 532.320312 436.421875 532.246094 C 436.429688 532.21875 436.433594 532.191406 436.441406 532.164062 C 436.457031 532.066406 436.46875 531.972656 436.480469 531.875 C 436.484375 531.847656 436.484375 531.816406 436.488281 531.789062 C 436.492188 531.714844 436.5 531.644531 436.5 531.570312 C 436.503906 531.535156 436.503906 531.5 436.503906 531.46875 C 436.503906 531.378906 436.503906 531.292969 436.5 531.203125 C 436.5 531.183594 436.5 531.160156 436.496094 531.136719 C 436.492188 531.046875 436.484375 530.960938 436.472656 530.871094 C 436.46875 530.835938 436.464844 530.800781 436.457031 530.761719 C 436.453125 530.734375 436.449219 530.703125 436.445312 530.675781 C 436.445312 530.675781 436.445312 530.675781 436.445312 530.679688 C 436.359375 530.152344 436.183594 529.625 435.914062 529.117188 C 435.589844 528.515625 435.191406 527.964844 434.738281 527.480469 C 434.589844 527.316406 434.433594 527.160156 434.269531 527.015625 C 434.152344 526.90625 434.03125 526.804688 433.910156 526.707031 C 433.777344 526.601562 433.644531 526.5 433.503906 526.402344 C 433.238281 526.214844 432.964844 526.050781 432.683594 525.902344 C 432.496094 525.804688 432.304688 525.714844 432.109375 525.632812 C 431.699219 525.464844 431.28125 525.351562 430.859375 525.273438 C 430.753906 525.253906 430.648438 525.234375 430.542969 525.21875 C 430.121094 525.15625 429.695312 525.117188 429.269531 525.082031 C 428.84375 525.042969 428.417969 525.007812 427.992188 524.941406 C 427.675781 524.894531 427.359375 524.835938 427.046875 524.746094 C 426.960938 524.722656 426.875 524.695312 426.792969 524.667969 C 426.285156 524.503906 425.804688 524.257812 425.421875 523.867188 C 425.359375 523.800781 425.296875 523.730469 425.238281 523.65625 C 424.6875 522.957031 424.472656 521.972656 424.210938 521.136719 C 423.757812 519.671875 423.3125 518.230469 422.878906 516.800781 C 422.730469 516.324219 422.589844 515.851562 422.445312 515.378906 C 421.820312 513.316406 421.230469 511.285156 420.730469 509.265625 C 420.488281 508.289062 420.265625 507.320312 420.082031 506.347656 C 420.074219 506.304688 420.0625 506.265625 420.054688 506.222656 C 420.046875 506.183594 420.039062 506.140625 420.03125 506.101562 C 419.898438 505.394531 419.75 504.6875 419.636719 503.980469 C 419.59375 503.734375 419.558594 503.488281 419.527344 503.242188 C 419.523438 503.214844 419.519531 503.191406 419.511719 503.167969 C 419.476562 503.074219 419.410156 502.996094 419.324219 502.945312 C 419.261719 502.90625 419.1875 502.878906 419.117188 502.871094 C 419.109375 502.871094 419.101562 502.871094 419.09375 502.871094 C 419.09375 502.871094 419.09375 502.867188 419.09375 502.867188 C 419.050781 502.863281 419.011719 502.863281 418.96875 502.863281 C 418.964844 502.859375 418.960938 502.859375 418.957031 502.859375 C 418.914062 502.839844 418.871094 502.824219 418.824219 502.808594 C 418.820312 502.808594 418.8125 502.804688 418.808594 502.804688 C 418.792969 502.800781 418.777344 502.792969 418.761719 502.789062 C 418.734375 502.78125 418.710938 502.773438 418.683594 502.765625 C 418.671875 502.765625 418.660156 502.761719 418.648438 502.757812 C 418.632812 502.753906 418.617188 502.75 418.597656 502.746094 C 418.558594 502.738281 418.519531 502.726562 418.480469 502.71875 C 418.464844 502.71875 418.453125 502.714844 418.441406 502.710938 C 418.425781 502.707031 418.414062 502.707031 418.398438 502.703125 C 418.351562 502.695312 418.300781 502.683594 418.253906 502.675781 C 418.15625 502.660156 418.058594 502.644531 417.964844 502.625 C 417.914062 502.617188 417.867188 502.609375 417.820312 502.601562 C 417.453125 502.527344 417.085938 502.457031 416.722656 502.386719 C 416.453125 502.332031 416.1875 502.28125 415.921875 502.226562 C 415.871094 502.21875 415.820312 502.207031 415.769531 502.195312 C 415.894531 501.726562 416.023438 501.257812 416.15625 500.792969 C 416.289062 500.421875 416.425781 500.054688 416.566406 499.691406 C 416.929688 498.730469 417.308594 497.78125 417.691406 496.832031 C 418.183594 495.628906 418.675781 494.425781 419.171875 493.226562 C 419.3125 493.253906 419.453125 493.285156 419.59375 493.3125 C 419.644531 493.324219 419.695312 493.328125 419.75 493.328125 C 419.800781 493.328125 419.855469 493.324219 419.910156 493.3125 C 420.121094 493.269531 420.328125 493.148438 420.472656 492.964844 C 420.542969 492.875 420.597656 492.769531 420.632812 492.652344 C 420.746094 492.246094 420.867188 491.847656 420.988281 491.449219 C 421.023438 491.335938 421.058594 491.226562 421.089844 491.117188 C 421.191406 490.796875 421.292969 490.480469 421.398438 490.164062 C 421.425781 490.078125 421.453125 489.992188 421.484375 489.90625 C 421.613281 489.511719 421.75 489.121094 421.886719 488.734375 C 421.914062 488.660156 421.945312 488.585938 421.972656 488.507812 C 422.089844 488.1875 422.207031 487.867188 422.328125 487.546875 C 422.367188 487.449219 422.402344 487.351562 422.441406 487.253906 C 422.742188 486.480469 423.054688 485.71875 423.382812 484.964844 C 423.421875 484.882812 423.457031 484.800781 423.492188 484.714844 C 423.632812 484.398438 423.777344 484.082031 423.921875 483.765625 C 423.953125 483.703125 423.980469 483.636719 424.011719 483.574219 C 424.183594 483.199219 424.363281 482.824219 424.542969 482.457031 C 424.816406 481.898438 425.097656 481.34375 425.386719 480.800781 C 425.574219 480.441406 425.769531 480.082031 425.964844 479.730469 C 426.011719 479.640625 426.0625 479.550781 426.113281 479.460938 C 426.316406 479.101562 426.519531 478.738281 426.726562 478.382812 C 426.730469 478.390625 426.734375 478.394531 426.742188 478.402344 C 426.851562 478.53125 426.957031 478.664062 427.066406 478.796875 C 427.066406 478.800781 427.066406 478.800781 427.066406 478.800781 C 427.175781 478.941406 427.285156 479.078125 427.390625 479.222656 C 427.597656 479.492188 427.792969 479.769531 427.984375 480.050781 C 428.101562 480.230469 428.21875 480.410156 428.332031 480.59375 C 428.40625 480.710938 428.476562 480.832031 428.546875 480.953125 C 428.613281 481.0625 428.679688 481.175781 428.742188 481.292969 C 428.789062 481.375 428.835938 481.460938 428.882812 481.546875 C 428.941406 481.65625 428.996094 481.765625 429.054688 481.875 C 429.125 482.019531 429.199219 482.160156 429.269531 482.308594 C 429.363281 482.503906 429.449219 482.703125 429.535156 482.90625 C 429.789062 483.515625 430.007812 484.144531 430.175781 484.800781 C 430.3125 485.320312 430.417969 485.851562 430.503906 486.390625 C 430.648438 487.273438 430.746094 488.179688 430.839844 489.089844 C 430.855469 489.222656 430.867188 489.355469 430.882812 489.488281 C 430.9375 490.023438 431 490.558594 431.070312 491.089844 C 431.128906 491.519531 431.195312 491.949219 431.277344 492.371094 C 431.359375 492.796875 431.453125 493.214844 431.5625 493.632812 C 431.789062 494.460938 432.078125 495.265625 432.464844 496.019531 C 432.808594 496.179688 433.152344 496.34375 433.496094 496.511719 C 433.746094 496.632812 434 496.753906 434.253906 496.875 C 434.367188 496.929688 434.484375 496.984375 434.597656 497.035156 C 434.730469 497.09375 434.859375 497.15625 434.988281 497.210938 C 435.054688 497.238281 435.121094 497.265625 435.183594 497.292969 C 435.253906 497.324219 435.324219 497.355469 435.394531 497.382812 C 435.492188 497.425781 435.59375 497.464844 435.691406 497.503906 C 435.726562 497.515625 435.757812 497.53125 435.789062 497.542969 C 435.816406 497.550781 435.839844 497.5625 435.867188 497.574219 C 435.867188 497.574219 435.863281 497.570312 435.863281 497.570312 C 435.90625 497.585938 435.949219 497.605469 435.996094 497.621094 C 436.132812 497.671875 436.269531 497.722656 436.410156 497.773438 C 436.519531 497.8125 436.628906 497.855469 436.742188 497.890625 C 436.828125 497.921875 436.917969 497.953125 437.003906 497.980469 C 437.136719 498.027344 437.269531 498.070312 437.402344 498.109375 C 437.488281 498.136719 437.574219 498.164062 437.660156 498.191406 C 437.8125 498.238281 437.964844 498.285156 438.117188 498.328125 C 438.191406 498.351562 438.265625 498.371094 438.339844 498.394531 C 438.382812 498.40625 438.421875 498.417969 438.464844 498.429688 C 438.835938 498.53125 439.207031 498.632812 439.578125 498.726562 C 439.730469 498.761719 439.878906 498.796875 440.03125 498.832031 C 440.0625 498.839844 440.09375 498.847656 440.128906 498.855469 C 440.25 498.882812 440.371094 498.910156 440.492188 498.933594 C 440.585938 498.957031 440.683594 498.972656 440.78125 498.992188 C 440.964844 499.03125 441.152344 499.066406 441.335938 499.101562 C 441.453125 499.121094 441.570312 499.144531 441.6875 499.164062 C 441.796875 499.183594 441.910156 499.199219 442.019531 499.214844 C 442.132812 499.234375 442.246094 499.25 442.363281 499.265625 C 442.464844 499.28125 442.566406 499.296875 442.667969 499.308594 C 442.867188 499.335938 443.066406 499.359375 443.269531 499.382812 C 443.347656 499.390625 443.425781 499.398438 443.503906 499.40625 C 443.648438 499.417969 443.792969 499.433594 443.941406 499.445312 C 444.03125 499.453125 444.121094 499.457031 444.214844 499.464844 C 444.261719 499.46875 444.308594 499.472656 444.355469 499.476562 C 444.355469 499.476562 444.355469 499.476562 444.355469 499.472656 C 444.363281 499.476562 444.375 499.476562 444.386719 499.476562 C 444.472656 499.484375 444.5625 499.488281 444.648438 499.492188 C 444.734375 499.496094 444.824219 499.503906 444.910156 499.507812 C 445.136719 499.515625 445.367188 499.527344 445.59375 499.53125 C 445.683594 499.53125 445.773438 499.53125 445.863281 499.53125 C 445.863281 499.53125 445.863281 499.53125 445.863281 499.535156 C 445.929688 499.535156 446 499.535156 446.070312 499.535156 C 446.144531 499.535156 446.222656 499.535156 446.300781 499.535156 C 446.339844 499.535156 446.378906 499.535156 446.417969 499.535156 C 446.53125 499.53125 446.644531 499.53125 446.753906 499.527344 C 446.863281 499.527344 446.972656 499.527344 447.085938 499.523438 C 447.21875 499.519531 447.351562 499.511719 447.484375 499.507812 C 447.574219 499.503906 447.664062 499.503906 447.75 499.5 C 447.972656 499.488281 448.199219 499.476562 448.421875 499.460938 C 448.519531 499.433594 448.621094 499.402344 448.71875 499.371094 C 448.816406 499.351562 448.914062 499.328125 449.011719 499.304688 C 449.058594 499.292969 449.105469 499.277344 449.152344 499.265625 C 449.203125 499.25 449.25 499.238281 449.300781 499.222656 C 449.308594 499.222656 449.320312 499.21875 449.328125 499.214844 C 449.375 499.203125 449.421875 499.183594 449.46875 499.167969 C 449.507812 499.15625 449.546875 499.144531 449.585938 499.128906 C 449.644531 499.109375 449.699219 499.085938 449.757812 499.0625 C 449.785156 499.050781 449.816406 499.042969 449.84375 499.03125 C 449.871094 499.019531 449.894531 499.011719 449.917969 499 C 450.015625 498.957031 450.113281 498.914062 450.207031 498.863281 C 450.492188 498.71875 450.765625 498.546875 451.027344 498.335938 C 451.027344 498.335938 451.03125 498.335938 451.03125 498.335938 C 451.117188 498.269531 451.199219 498.195312 451.277344 498.121094 C 451.300781 498.101562 451.324219 498.082031 451.34375 498.058594 C 451.40625 498 451.46875 497.9375 451.523438 497.875 C 451.542969 497.859375 451.558594 497.839844 451.578125 497.824219 C 451.59375 497.800781 451.613281 497.78125 451.632812 497.761719 C 451.65625 497.730469 451.679688 497.703125 451.703125 497.671875 C 451.726562 497.648438 451.746094 497.621094 451.769531 497.597656 C 451.773438 497.589844 451.777344 497.585938 451.78125 497.578125 C 451.792969 497.5625 451.804688 497.546875 451.816406 497.53125 C 451.84375 497.496094 451.875 497.457031 451.898438 497.421875 C 451.898438 497.421875 451.902344 497.417969 451.902344 497.417969 C 451.921875 497.386719 451.945312 497.351562 451.96875 497.320312 C 451.984375 497.292969 452.003906 497.269531 452.019531 497.242188 C 452.074219 497.15625 452.125 497.074219 452.171875 496.988281 C 452.175781 496.980469 452.179688 496.972656 452.183594 496.960938 C 452.230469 496.875 452.273438 496.789062 452.316406 496.699219 C 452.328125 496.667969 452.34375 496.636719 452.355469 496.605469 C 452.386719 496.535156 452.414062 496.464844 452.441406 496.390625 C 452.453125 496.363281 452.460938 496.339844 452.472656 496.3125 C 452.503906 496.214844 452.535156 496.121094 452.5625 496.023438 C 452.570312 495.996094 452.574219 495.964844 452.582031 495.9375 C 452.601562 495.863281 452.617188 495.789062 452.632812 495.714844 C 452.640625 495.679688 452.648438 495.644531 452.652344 495.609375 C 452.667969 495.519531 452.683594 495.429688 452.691406 495.339844 C 452.695312 495.316406 452.699219 495.292969 452.699219 495.269531 C 452.707031 495.179688 452.714844 495.085938 452.71875 494.996094 C 452.71875 494.957031 452.722656 494.921875 452.722656 494.882812 C 452.722656 494.851562 452.722656 494.820312 452.722656 494.792969 C 452.722656 494.242188 452.628906 493.675781 452.4375 493.113281 C 451.976562 491.773438 451.175781 490.597656 450.179688 489.707031 C 450.011719 489.5625 449.839844 489.421875 449.664062 489.289062 C 449.488281 489.15625 449.308594 489.035156 449.125 488.921875 C 448.242188 488.375 447.277344 488.128906 446.3125 487.886719 C 446.203125 487.859375 446.097656 487.832031 445.988281 487.804688 C 445.773438 487.75 445.5625 487.691406 445.347656 487.628906 C 444.921875 487.507812 444.503906 487.363281 444.097656 487.175781 C 444.011719 487.140625 443.929688 487.097656 443.847656 487.054688 C 443.441406 486.84375 443.058594 486.582031 442.753906 486.230469 C 442.632812 486.089844 442.523438 485.9375 442.425781 485.765625 C 442.007812 485.011719 441.933594 484.046875 441.820312 483.1875 C 441.8125 483.128906 441.804688 483.074219 441.796875 483.015625 C 441.722656 482.492188 441.648438 481.972656 441.574219 481.453125 C 441.464844 480.675781 441.359375 479.902344 441.253906 479.136719 C 441.148438 478.367188 441.042969 477.601562 440.941406 476.839844 C 440.640625 474.628906 440.375 472.457031 440.199219 470.308594 C 440.175781 470.039062 440.152344 469.769531 440.132812 469.5 C 440.078125 468.699219 440.03125 467.90625 440.011719 467.113281 C 440.011719 467.105469 440.011719 467.097656 440.011719 467.085938 C 439.996094 466.5625 439.976562 466.035156 439.964844 465.511719 C 439.949219 464.988281 439.945312 464.464844 439.960938 463.949219 C 439.964844 463.898438 439.957031 463.847656 439.9375 463.800781 C 439.917969 463.753906 439.894531 463.710938 439.859375 463.671875 C 439.828125 463.632812 439.789062 463.597656 439.742188 463.570312 C 439.699219 463.539062 439.652344 463.519531 439.605469 463.503906 C 439.597656 463.503906 439.589844 463.503906 439.582031 463.5 C 439.539062 463.488281 439.496094 463.480469 439.453125 463.472656 C 439.449219 463.46875 439.449219 463.46875 439.445312 463.464844 C 439.367188 463.417969 439.289062 463.378906 439.203125 463.339844 C 439.1875 463.332031 439.171875 463.324219 439.15625 463.320312 C 439.078125 463.285156 439 463.253906 438.917969 463.222656 C 438.890625 463.214844 438.867188 463.203125 438.839844 463.195312 C 438.824219 463.1875 438.804688 463.179688 438.789062 463.175781 C 438.773438 463.171875 438.757812 463.164062 438.742188 463.160156 C 438.9375 459.371094 439.300781 455.589844 439.785156 451.828125 C 440.207031 448.527344 440.730469 445.238281 441.308594 441.960938 C 442.152344 440.457031 442.941406 438.914062 443.648438 437.332031 C 444.066406 436.394531 444.457031 435.445312 444.816406 434.480469 C 445.125 433.839844 445.378906 433.167969 445.566406 432.464844 C 445.660156 432.121094 445.738281 431.777344 445.800781 431.425781 C 445.945312 430.84375 446.046875 430.25 446.09375 429.640625 C 446.09375 429.613281 446.09375 429.589844 446.097656 429.5625 C 446.136719 429.375 446.171875 429.1875 446.203125 429 C 446.214844 428.953125 446.222656 428.902344 446.230469 428.855469 C 446.257812 428.679688 446.285156 428.503906 446.308594 428.332031 C 446.3125 428.316406 446.3125 428.300781 446.316406 428.285156 C 446.339844 428.097656 446.363281 427.90625 446.378906 427.714844 C 446.382812 427.671875 446.386719 427.628906 446.390625 427.582031 C 446.40625 427.410156 446.421875 427.238281 446.429688 427.0625 C 446.429688 427.042969 446.433594 427.023438 446.433594 427.003906 C 446.445312 426.808594 446.449219 426.617188 446.453125 426.421875 C 446.453125 426.386719 446.453125 426.351562 446.457031 426.316406 C 446.457031 426.136719 446.457031 425.957031 446.453125 425.777344 C 446.453125 425.761719 446.453125 425.742188 446.453125 425.722656 C 446.449219 425.523438 446.441406 425.324219 446.429688 425.125 C 446.425781 425.101562 446.425781 425.078125 446.421875 425.058594 C 446.410156 424.867188 446.398438 424.679688 446.378906 424.492188 C 446.378906 424.476562 446.375 424.464844 446.375 424.449219 C 446.355469 424.242188 446.332031 424.039062 446.300781 423.832031 C 446.300781 423.828125 446.300781 423.824219 446.300781 423.816406 C 446.273438 423.617188 446.242188 423.414062 446.207031 423.214844 C 446.203125 423.203125 446.203125 423.195312 446.203125 423.1875 C 446.128906 422.773438 446.039062 422.363281 445.9375 421.957031 C 445.933594 421.953125 445.933594 421.949219 445.933594 421.941406 C 445.859375 421.652344 445.777344 421.363281 445.6875 421.078125 C 445.976562 419.929688 446.265625 418.78125 446.546875 417.632812 C 447.363281 414 448.144531 410.359375 448.769531 406.6875 C 449.082031 404.847656 449.363281 403.003906 449.628906 401.15625 C 450.128906 398.734375 450.628906 396.308594 451.128906 393.886719 C 452.328125 388.09375 453.539062 382.300781 454.648438 376.488281 C 455.054688 375.5 455.496094 374.527344 455.941406 373.550781 C 455.949219 373.515625 455.953125 373.476562 455.960938 373.441406 C 455.976562 373.382812 455.984375 373.320312 455.996094 373.257812 C 456.019531 373.125 456.046875 372.992188 456.070312 372.855469 C 456.082031 372.773438 456.09375 372.691406 456.105469 372.605469 C 456.121094 372.480469 456.140625 372.359375 456.15625 372.234375 C 456.171875 372.121094 456.179688 372.007812 456.191406 371.894531 C 456.199219 371.796875 456.210938 371.703125 456.21875 371.601562 C 456.234375 371.390625 456.246094 371.179688 456.253906 370.964844 C 456.273438 370.164062 456.207031 369.375 456.066406 368.601562 C 456.078125 368.605469 456.09375 368.605469 456.105469 368.605469 C 456.132812 368.605469 456.164062 368.609375 456.191406 368.609375 C 456.226562 368.613281 456.261719 368.609375 456.296875 368.609375 C 456.324219 368.609375 456.351562 368.609375 456.378906 368.605469 C 456.417969 368.605469 456.453125 368.597656 456.488281 368.59375 C 456.515625 368.589844 456.539062 368.589844 456.566406 368.585938 C 456.601562 368.578125 456.636719 368.570312 456.675781 368.5625 C 456.699219 368.554688 456.726562 368.546875 456.75 368.542969 C 456.785156 368.53125 456.820312 368.519531 456.855469 368.507812 C 456.871094 368.5 456.890625 368.496094 456.90625 368.488281 C 456.902344 368.488281 456.902344 368.488281 456.898438 368.488281 C 456.925781 368.476562 456.949219 368.472656 456.972656 368.460938 C 457.003906 368.445312 457.03125 368.429688 457.0625 368.40625 C 457.066406 368.402344 457.070312 368.402344 457.078125 368.398438 C 457.105469 368.375 457.132812 368.355469 457.160156 368.328125 C 457.167969 368.324219 457.171875 368.316406 457.179688 368.308594 C 457.1875 368.304688 457.191406 368.300781 457.195312 368.292969 C 457.25 368.238281 457.300781 368.175781 457.34375 368.105469 C 457.535156 368.113281 457.640625 367.839844 457.5 367.671875 C 456.976562 367.054688 456.351562 366.535156 455.761719 365.992188 C 455.53125 365.78125 455.300781 365.566406 455.070312 365.355469 C 455.027344 365.253906 454.984375 365.15625 454.941406 365.054688 C 455.1875 365.121094 455.4375 365.179688 455.6875 365.226562 C 456.253906 365.335938 456.835938 365.382812 457.414062 365.390625 C 457.964844 365.394531 458.480469 365.378906 458.980469 365.105469 C 459.328125 364.914062 459.226562 364.367188 458.929688 364.207031 Z M 397.253906 361.652344 C 400.023438 361.417969 402.726562 360.921875 405.480469 360.339844 C 406.960938 360.023438 408.4375 359.683594 409.914062 359.34375 C 410.351562 359.242188 410.792969 359.136719 411.234375 359.027344 C 411.683594 358.921875 412.136719 358.8125 412.589844 358.707031 C 413.15625 358.578125 413.722656 358.457031 414.289062 358.351562 C 415.683594 358.09375 417.101562 358.027344 418.511719 357.933594 C 419.8125 357.851562 421.007812 357.722656 422.273438 357.4375 C 422.601562 357.363281 422.941406 357.476562 423.132812 357.734375 C 423.296875 357.851562 423.414062 358.042969 423.421875 358.308594 C 423.417969 358.164062 423.46875 358.449219 423.472656 358.476562 C 423.503906 358.625 423.515625 358.789062 423.53125 358.941406 C 423.550781 359.148438 423.5625 359.355469 423.585938 359.558594 C 423.609375 359.746094 423.625 359.867188 423.664062 360.097656 C 423.679688 360.199219 423.699219 360.296875 423.714844 360.394531 C 424.03125 360.800781 424.394531 361.171875 424.785156 361.519531 C 423.398438 362 422.015625 362.515625 420.640625 363.046875 C 419.902344 363.328125 419.167969 363.613281 418.4375 363.902344 C 413.972656 365.929688 409.558594 368.085938 405.140625 370.21875 C 400.554688 372.433594 395.976562 374.683594 391.449219 377.03125 C 390.855469 377.339844 390.257812 377.652344 389.664062 377.964844 C 389.667969 377.953125 389.667969 377.941406 389.667969 377.929688 C 389.671875 377.917969 389.671875 377.910156 389.671875 377.898438 C 389.671875 377.875 389.671875 377.851562 389.671875 377.828125 C 389.671875 377.820312 389.671875 377.808594 389.671875 377.800781 C 389.667969 377.769531 389.667969 377.738281 389.660156 377.710938 C 389.628906 377.53125 389.535156 377.367188 389.410156 377.25 C 389.261719 376.960938 389.09375 376.679688 388.914062 376.40625 C 388.683594 375.882812 388.394531 375.386719 388.089844 374.898438 C 387.625 374.15625 387.132812 373.429688 386.609375 372.726562 C 386.390625 372.425781 386.160156 372.132812 385.929688 371.839844 C 385.859375 371.75 385.792969 371.660156 385.71875 371.570312 C 385.613281 371.441406 385.507812 371.308594 385.402344 371.179688 C 385.445312 371.128906 385.488281 371.082031 385.53125 371.03125 C 385.546875 371.015625 385.554688 371.003906 385.5625 370.992188 C 385.566406 370.988281 385.574219 370.980469 385.582031 370.964844 C 385.671875 370.839844 385.761719 370.71875 385.847656 370.59375 C 385.941406 370.449219 386.03125 370.296875 386.113281 370.148438 C 386.148438 370.082031 386.183594 370.011719 386.214844 369.945312 C 386.226562 369.921875 386.25 369.878906 386.261719 369.847656 C 385.273438 368.925781 384.273438 368.015625 383.238281 367.140625 C 382.289062 366.335938 381.285156 365.59375 380.359375 364.769531 C 379.542969 364.046875 378.800781 363.265625 378.132812 362.414062 C 378.09375 362.359375 378.050781 362.304688 378.011719 362.253906 C 377.914062 362.121094 377.816406 361.988281 377.722656 361.855469 C 377.316406 361.269531 376.972656 360.652344 376.691406 360.015625 C 376.507812 359.59375 376.347656 359.160156 376.21875 358.722656 C 376.21875 358.71875 376.21875 358.714844 376.214844 358.710938 C 376.183594 358.605469 376.15625 358.496094 376.128906 358.390625 C 376.121094 358.359375 376.113281 358.332031 376.105469 358.300781 C 376.085938 358.21875 376.066406 358.136719 376.046875 358.054688 C 376.035156 358.003906 376.027344 357.953125 376.015625 357.902344 C 376.003906 357.839844 375.988281 357.777344 375.976562 357.714844 C 375.953125 357.601562 375.933594 357.488281 375.917969 357.371094 C 375.8125 357.070312 375.710938 356.765625 375.613281 356.464844 C 375.578125 356.351562 375.542969 356.242188 375.507812 356.128906 C 375.550781 355.859375 375.589844 355.589844 375.632812 355.316406 C 375.679688 355.328125 375.722656 355.339844 375.773438 355.351562 C 376.664062 355.527344 377.652344 355.507812 378.507812 355.167969 C 378.894531 355.011719 379.25 354.789062 379.503906 354.453125 C 379.792969 354.066406 379.855469 353.601562 379.9375 353.136719 C 379.9375 353.132812 379.9375 353.132812 379.9375 353.128906 C 380.25 352.507812 380.558594 351.886719 380.894531 351.277344 C 381.347656 350.671875 381.726562 350.050781 382.046875 349.382812 C 382.195312 349.152344 382.34375 348.921875 382.488281 348.6875 C 382.511719 348.652344 382.53125 348.617188 382.550781 348.582031 C 382.601562 348.496094 382.652344 348.414062 382.699219 348.328125 C 382.820312 348.519531 382.9375 348.710938 383.058594 348.902344 C 384.773438 351.644531 386.511719 354.375 388.320312 357.058594 C 388.5625 357.523438 388.839844 357.964844 389.160156 358.382812 C 390.1875 359.714844 391.5625 360.65625 393.152344 361.195312 C 394.035156 361.496094 394.957031 361.664062 395.890625 361.75 C 396.34375 361.726562 396.796875 361.691406 397.253906 361.652344 Z M 378.203125 384.347656 C 377.980469 384.480469 377.757812 384.613281 377.535156 384.746094 C 377.648438 384.644531 377.769531 384.550781 377.902344 384.460938 C 378.125 384.3125 378.355469 384.175781 378.59375 384.046875 C 378.703125 383.980469 378.816406 383.917969 378.929688 383.859375 C 379.121094 383.757812 379.308594 383.65625 379.492188 383.554688 C 379.742188 383.417969 379.996094 383.28125 380.25 383.152344 C 379.566406 383.546875 378.882812 383.945312 378.203125 384.347656 Z M 322.867188 312.621094 C 322.757812 312.597656 322.648438 312.582031 322.542969 312.566406 C 322.574219 312.566406 322.609375 312.566406 322.640625 312.570312 C 322.71875 312.585938 322.792969 312.601562 322.867188 312.621094 Z M 380.375 256.761719 C 380.226562 256.496094 380.074219 256.230469 379.914062 255.96875 C 380.039062 255.574219 380.160156 255.179688 380.277344 254.785156 C 380.765625 253.09375 380.894531 251.347656 380.519531 249.617188 C 380.308594 248.625 379.941406 247.691406 379.492188 246.800781 C 380.339844 248.179688 381.003906 249.65625 381.234375 251.28125 C 381.507812 253.191406 381.046875 254.992188 380.375 256.761719 Z M 388.710938 317.804688 C 388.109375 317.457031 387.628906 316.964844 387.273438 316.386719 C 387.546875 316.585938 387.835938 316.761719 388.144531 316.914062 C 388.28125 316.984375 388.421875 317.046875 388.5625 317.105469 C 388.601562 317.339844 388.648438 317.578125 388.710938 317.804688 Z M 410.144531 399.574219 C 409.636719 399.386719 409.128906 399.203125 408.617188 399.015625 C 409.980469 398 411.34375 396.988281 412.714844 395.988281 C 415.925781 393.648438 419.203125 391.402344 422.410156 389.054688 C 423.03125 388.644531 423.652344 388.230469 424.273438 387.820312 C 424.339844 387.777344 424.40625 387.730469 424.472656 387.6875 C 425.800781 386.535156 427.144531 385.394531 428.476562 384.25 C 429.433594 383.433594 430.371094 382.597656 431.292969 381.75 C 431.792969 381.355469 432.285156 380.953125 432.777344 380.546875 C 432.789062 380.539062 432.796875 380.53125 432.808594 380.519531 C 434.519531 379.105469 436.183594 377.621094 437.761719 376.074219 C 438.234375 375.609375 438.699219 375.140625 439.15625 374.664062 C 438.933594 375.027344 438.707031 375.390625 438.484375 375.753906 C 437.5625 377.242188 436.765625 378.808594 436.011719 380.394531 C 435.273438 381.949219 434.578125 383.53125 433.910156 385.125 C 433.21875 386.773438 432.574219 388.460938 432.214844 390.226562 C 432.132812 390.625 432.066406 391.03125 432.011719 391.4375 C 431.4375 393.609375 431.027344 395.839844 430.742188 398.058594 C 430.566406 399.574219 430.449219 401.097656 430.394531 402.625 C 430.390625 402.730469 430.386719 402.835938 430.382812 402.941406 C 430.460938 404.507812 430.585938 406.070312 430.773438 407.632812 C 430.734375 407.617188 430.691406 407.605469 430.652344 407.589844 C 430.574219 407.558594 430.5 407.53125 430.421875 407.503906 C 428.496094 406.605469 426.535156 405.785156 424.5625 405 C 419.792969 403.105469 414.960938 401.351562 410.144531 399.574219 Z M 390.214844 336.804688 C 390.3125 336.984375 390.40625 337.167969 390.488281 337.359375 C 390.394531 337.171875 390.304688 336.988281 390.214844 336.804688 Z M 390.40625 329.394531 C 391.152344 329.4375 391.976562 329.265625 392.699219 329.09375 C 393.101562 328.996094 393.480469 328.847656 393.878906 328.726562 C 393.980469 328.691406 394.136719 328.640625 394.285156 328.628906 C 394.363281 328.714844 394.441406 328.796875 394.5 328.894531 C 394.617188 329.085938 394.691406 329.300781 394.714844 329.523438 C 394.714844 329.542969 394.714844 329.566406 394.714844 329.585938 C 394.714844 329.597656 394.71875 329.605469 394.71875 329.617188 C 394.71875 329.632812 394.71875 329.644531 394.71875 329.65625 C 394.707031 330.277344 394.261719 330.769531 393.984375 331.296875 C 393.707031 331.824219 393.425781 332.691406 393.609375 333.335938 C 393.382812 332.972656 393.113281 332.636719 392.800781 332.339844 C 392.261719 331.828125 391.621094 331.445312 390.914062 331.203125 C 390.285156 330.992188 389.578125 331.046875 388.964844 330.800781 C 388.457031 330.597656 388.425781 330.042969 388.40625 329.570312 C 388.394531 329.300781 388.382812 329.03125 388.363281 328.765625 C 388.433594 328.476562 388.503906 328.191406 388.5625 327.90625 C 388.574219 327.933594 388.585938 327.960938 388.597656 327.988281 C 388.929688 328.789062 389.492188 329.34375 390.40625 329.394531 Z M 391.769531 317.511719 C 391.566406 317.789062 391.316406 318.023438 391.039062 318.121094 C 390.550781 318.289062 390.324219 317.953125 390.230469 317.546875 C 390.339844 317.558594 390.449219 317.570312 390.5625 317.574219 C 390.960938 317.597656 391.367188 317.570312 391.769531 317.511719 Z M 391.726562 306.757812 C 392.3125 305.972656 392.855469 305.109375 393.121094 304.164062 C 393.210938 303.851562 393.28125 303.460938 393.289062 303.070312 C 393.371094 303.203125 393.449219 303.339844 393.523438 303.480469 C 393.769531 303.96875 393.960938 304.527344 394 305.078125 C 394.042969 305.617188 393.949219 306.160156 393.65625 306.621094 C 393.378906 307.058594 392.949219 307.382812 392.535156 307.6875 C 391.578125 308.390625 390.609375 309.082031 389.664062 309.800781 C 389.496094 309.929688 389.328125 310.058594 389.167969 310.191406 C 389.421875 309.714844 389.75 309.265625 390.078125 308.839844 C 390.617188 308.136719 391.199219 307.46875 391.726562 306.757812 Z M 386.222656 278.226562 C 386.390625 278.160156 386.613281 278.183594 386.765625 278.257812 C 386.820312 278.28125 386.867188 278.3125 386.910156 278.34375 C 386.867188 278.371094 386.824219 278.398438 386.777344 278.421875 C 386.640625 278.492188 386.492188 278.550781 386.339844 278.59375 C 386.320312 278.535156 386.304688 278.472656 386.285156 278.414062 C 386.261719 278.351562 386.238281 278.289062 386.210938 278.226562 C 386.214844 278.226562 386.21875 278.226562 386.222656 278.226562 Z M 320.554688 295.972656 C 320.558594 295.972656 320.5625 295.976562 320.5625 295.976562 C 320.5625 295.976562 320.558594 295.980469 320.558594 295.980469 C 320.554688 295.976562 320.554688 295.976562 320.554688 295.972656 Z M 318.511719 300.574219 C 318.582031 300.484375 318.652344 300.394531 318.722656 300.304688 C 318.78125 300.316406 318.835938 300.324219 318.898438 300.324219 C 319.039062 300.457031 319.210938 300.546875 319.398438 300.535156 C 318.789062 301.058594 318.1875 301.632812 317.785156 302.3125 C 317.839844 301.695312 318.152344 301.0625 318.511719 300.574219 Z M 329.816406 326.707031 C 329.734375 326.871094 329.644531 327.03125 329.53125 327.1875 C 329.214844 327.621094 328.898438 328.0625 328.539062 328.460938 C 328.175781 328.859375 327.773438 329.199219 327.328125 329.496094 C 327.21875 329.570312 327.101562 329.636719 326.984375 329.699219 C 327.105469 329.320312 327.265625 328.949219 327.449219 328.589844 C 328.367188 328.132812 329.171875 327.484375 329.816406 326.707031 Z M 339.875 332.296875 C 339.398438 332.910156 339.023438 333.617188 338.777344 334.402344 C 338.632812 334.859375 338.535156 335.332031 338.476562 335.808594 C 338.402344 335.082031 337.875 334.390625 337.46875 334.03125 C 337.066406 333.667969 336.539062 333.433594 336.316406 332.839844 C 336.3125 332.828125 336.308594 332.8125 336.304688 332.800781 C 336.300781 332.789062 336.296875 332.777344 336.292969 332.765625 C 336.289062 332.746094 336.28125 332.726562 336.273438 332.707031 C 336.214844 332.484375 336.199219 332.234375 336.226562 331.988281 C 336.242188 331.867188 336.273438 331.742188 336.308594 331.621094 C 336.429688 331.554688 336.570312 331.519531 336.664062 331.496094 C 337.019531 331.402344 337.375 331.347656 337.726562 331.222656 C 338.359375 331.003906 339.070312 330.734375 339.644531 330.300781 C 340.085938 329.964844 340.347656 329.511719 340.476562 328.992188 C 340.5 329.066406 340.519531 329.140625 340.542969 329.214844 C 340.726562 329.832031 340.929688 330.425781 341.175781 331.003906 C 340.785156 331.484375 340.265625 331.800781 339.875 332.296875 Z M 356.289062 442.734375 C 354.53125 438.582031 352.472656 434.382812 349.671875 431.070312 C 354.21875 431.574219 359.269531 431.902344 364.625 432.007812 C 364.632812 432.03125 364.640625 432.054688 364.648438 432.082031 C 364.875 432.882812 365.117188 433.679688 365.339844 434.484375 C 365.769531 436.035156 366.140625 437.605469 366.457031 439.1875 C 367.109375 442.441406 367.484375 445.738281 367.6875 449.070312 C 367.761719 450.3125 367.824219 451.558594 367.878906 452.808594 C 366.320312 452.976562 364.777344 453.328125 363.289062 453.796875 C 362.464844 454.054688 361.363281 454.292969 360.59375 454.925781 C 359.386719 450.753906 357.953125 446.675781 356.289062 442.734375 Z M 361.273438 457.355469 C 361.273438 457.355469 361.269531 457.355469 361.269531 457.351562 C 361.101562 456.730469 360.933594 456.109375 360.757812 455.492188 C 361.507812 455.023438 362.40625 454.847656 363.214844 454.632812 C 364.605469 454.269531 366.003906 453.925781 367.421875 453.742188 C 367.582031 453.722656 367.75 453.703125 367.914062 453.683594 C 367.992188 455.550781 368.054688 457.417969 368.128906 459.285156 C 366.421875 459.109375 364.738281 458.699219 363.074219 458.144531 C 362.457031 457.941406 361.839844 457.71875 361.273438 457.355469 Z M 364.382812 473.675781 C 363.816406 468.800781 362.933594 463.980469 361.761719 459.257812 C 361.84375 459.296875 361.925781 459.335938 362.011719 459.375 C 363.355469 459.972656 364.777344 460.378906 366.191406 460.667969 C 366.855469 460.800781 367.523438 460.90625 368.195312 460.976562 C 368.304688 463.789062 368.40625 466.601562 368.5 469.417969 C 368.683594 474.851562 368.824219 480.289062 368.910156 485.730469 C 368.769531 485.746094 368.632812 485.765625 368.492188 485.785156 C 367.476562 485.945312 366.410156 486.136719 365.460938 486.613281 C 365.425781 486.628906 365.386719 486.652344 365.34375 486.675781 C 365.164062 482.328125 364.886719 477.988281 364.382812 473.675781 Z M 368.875 490.289062 C 368.003906 490.175781 367.066406 490.054688 366.257812 489.617188 C 365.957031 489.453125 365.675781 489.242188 365.429688 488.980469 C 365.414062 488.480469 365.394531 487.976562 365.375 487.472656 C 365.6875 487.3125 366.015625 487.207031 366.351562 487.121094 C 367.195312 486.902344 368.0625 486.796875 368.925781 486.710938 C 368.941406 487.90625 368.957031 489.101562 368.96875 490.296875 C 368.9375 490.292969 368.90625 490.292969 368.875 490.289062 Z M 372.65625 488.796875 C 372.617188 488.832031 372.582031 488.871094 372.539062 488.902344 C 372.179688 489.21875 371.8125 489.527344 371.421875 489.789062 C 371.25 489.898438 371.082031 489.992188 370.914062 490.066406 C 370.890625 488.90625 370.867188 487.75 370.839844 486.589844 C 371.070312 486.601562 371.292969 486.632812 371.507812 486.6875 C 372.070312 486.828125 372.339844 487.335938 372.691406 487.753906 C 372.679688 488.101562 372.667969 488.449219 372.65625 488.796875 Z M 373.675781 473.585938 C 373.191406 477.796875 372.921875 482.039062 372.75 486.28125 C 372.441406 485.996094 372.085938 485.792969 371.738281 485.707031 C 371.433594 485.632812 371.125 485.613281 370.816406 485.613281 C 370.703125 480.902344 370.550781 476.191406 370.375 471.484375 C 370.246094 468.015625 370.117188 464.546875 369.964844 461.078125 C 371.625 461.097656 373.285156 460.878906 374.894531 460.355469 C 375.300781 460.222656 375.699219 460.070312 376.097656 459.898438 C 375.019531 464.386719 374.207031 468.960938 373.675781 473.585938 Z M 376.636719 457.726562 C 376.523438 457.789062 376.410156 457.84375 376.304688 457.898438 C 375.742188 458.199219 375.152344 458.4375 374.554688 458.640625 C 373.316406 459.0625 372.046875 459.292969 370.757812 459.359375 C 370.46875 459.375 370.179688 459.378906 369.886719 459.378906 C 369.796875 457.4375 369.695312 455.5 369.582031 453.5625 C 371.457031 453.507812 373.378906 453.742188 375.058594 454.621094 C 375.589844 454.898438 376.105469 455.25 376.53125 455.714844 C 376.707031 455.910156 376.867188 456.117188 377.007812 456.34375 C 376.882812 456.804688 376.757812 457.265625 376.636719 457.726562 Z M 381.71875 442.621094 C 380.011719 446.683594 378.550781 450.890625 377.328125 455.191406 C 377.324219 455.1875 377.324219 455.183594 377.320312 455.179688 C 376.917969 454.710938 376.4375 454.324219 375.929688 454.019531 C 374.804688 453.347656 373.566406 453.054688 372.324219 452.867188 C 371.402344 452.726562 370.46875 452.675781 369.53125 452.695312 C 369.496094 452.097656 369.457031 451.5 369.417969 450.898438 C 368.996094 444.523438 368.257812 437.996094 366.207031 432.03125 C 366.941406 432.039062 367.675781 432.046875 368.417969 432.046875 C 375.652344 432.046875 382.445312 431.644531 388.320312 430.9375 C 385.523438 434.257812 383.46875 438.460938 381.71875 442.621094 Z M 381.71875 442.621094 " fill-opacity="1" fill-rule="nonzero"/></g></svg>